<svg width="40" height="25" viewBox="0 0 40 25" fill="none" xmlns="http://www.w3.org/2000/svg">
<g id="american-express-icon 1" clip-path="url(#clip0_501_388)">
<path id="Vector" fill-rule="evenodd" clip-rule="evenodd" d="M12.1492 4.25061H27.8511V20.7493H12.1492V4.25061Z" fill="#006ECE"/>
<path id="Vector_2" fill-rule="evenodd" clip-rule="evenodd" d="M13.5693 11.3854L13.2675 10.6168L12.9671 11.3854H13.5693ZM27.8456 14.0229H27.0404C26.9603 14.0229 26.9064 14.0264 26.8628 14.0578C26.8168 14.0891 26.7979 14.1364 26.7979 14.1972C26.7979 14.2696 26.8372 14.3197 26.8952 14.3411C26.9405 14.358 26.9908 14.3624 27.0652 14.3634L27.3034 14.3697C27.5441 14.377 27.7055 14.4197 27.8046 14.5244C27.8208 14.5396 27.8327 14.5574 27.8456 14.5737V14.0231V14.0229ZM27.8456 15.2964C27.737 15.4619 27.5288 15.5441 27.2464 15.5441H26.3942V15.1294H27.2429C27.3265 15.1294 27.3856 15.1177 27.4213 15.0811C27.4512 15.0525 27.4742 15.0096 27.4742 14.956C27.4744 14.8997 27.4512 14.8541 27.4205 14.8282C27.3871 14.7978 27.3412 14.7854 27.2651 14.7844C26.8511 14.7702 26.3345 14.7978 26.3345 14.1866C26.3345 13.9067 26.5044 13.612 26.9662 13.612H27.8456V13.2277H27.0286C26.7818 13.2277 26.6033 13.2892 26.4761 13.3858V13.2277H25.269C25.0769 13.2277 24.8507 13.2787 24.7422 13.3858L24.743 13.2277H22.5864V13.3858C22.4148 13.2572 22.1262 13.2277 21.9914 13.2277H20.5706V13.3858C20.4341 13.2482 20.1335 13.2277 19.949 13.2277H18.3572L17.9932 13.6415L17.6525 13.2277H15.2743V15.9241H17.6077L17.9828 15.505L18.3367 15.9241L19.7732 15.9249V15.2904H19.9157C20.1053 15.2932 20.3315 15.286 20.5295 15.1967V15.9242H21.7154V15.2208H21.7727C21.846 15.2208 21.8528 15.2252 21.8528 15.3003V15.9242H25.4557C25.6836 15.9242 25.9228 15.8625 26.0551 15.7518V15.9242H27.1982C27.4364 15.9242 27.6678 15.8894 27.8454 15.8001V15.2968L27.8456 15.2964ZM26.0851 14.5242C26.1722 14.6182 26.2175 14.736 26.2175 14.9336C26.2175 15.3502 25.9691 15.5441 25.5251 15.5441H24.6654V15.1294H25.5217C25.6062 15.1294 25.6642 15.1177 25.7017 15.0811C25.7316 15.0525 25.7539 15.0096 25.7539 14.956C25.7539 14.8997 25.7309 14.8541 25.6992 14.8282C25.6658 14.7978 25.6198 14.7854 25.543 14.7844C25.1306 14.7702 24.614 14.7978 24.614 14.1866C24.614 13.9067 24.7822 13.612 25.2442 13.612H26.1286V14.023H25.3201C25.2391 14.023 25.1869 14.0265 25.1425 14.0579C25.0948 14.0892 25.0769 14.1366 25.0769 14.1974C25.0769 14.2697 25.1178 14.3198 25.1734 14.3412C25.2194 14.3582 25.269 14.3626 25.3441 14.3636L25.5824 14.3698C25.8223 14.3771 25.9854 14.4198 26.0852 14.5245L26.0851 14.5242ZM22.1058 14.4063C22.0477 14.4421 21.9743 14.4456 21.889 14.4456H21.3527V14.0121H21.8962C21.9744 14.0121 22.0537 14.0138 22.1058 14.046C22.163 14.0781 22.1971 14.1372 22.1971 14.2204C22.1971 14.3026 22.163 14.3695 22.1058 14.4063ZM22.3722 14.6458C22.4704 14.6833 22.5506 14.7511 22.5882 14.8084C22.6505 14.9032 22.6607 14.9908 22.6615 15.1615V15.5441H22.2193V15.3018C22.2193 15.1856 22.2296 15.014 22.1476 14.9246C22.0836 14.854 21.9853 14.8379 21.8249 14.8379H21.3527V15.5439H20.9105V13.6117H21.9278C22.152 13.6117 22.3145 13.6215 22.459 13.7037C22.5977 13.7905 22.6847 13.913 22.6847 14.1328C22.6847 14.4402 22.4887 14.5973 22.3723 14.6458H22.3722ZM22.9296 13.6117H24.4022V14.0121H23.3692V14.3624H24.3767V14.7566H23.3692V15.141L24.4022 15.1427V15.5441H22.9296V13.6118V13.6117ZM19.955 14.5028H19.384V14.0121H19.9594C20.119 14.0121 20.2291 14.0792 20.2291 14.2489C20.2291 14.4161 20.1241 14.5028 19.955 14.5028ZM18.9446 15.3688L18.2684 14.5813L18.9446 13.8199V15.3688ZM17.1965 15.1409H16.1123V14.7565H17.0804V14.3623H16.1123V14.0119H17.2175L17.6999 14.5741L17.1966 15.1408L17.1965 15.1409ZM20.702 14.2489C20.702 14.7842 20.3204 14.8961 19.934 14.8961H19.3838V15.5441H18.5279L17.9845 14.905L17.42 15.5441H15.6737V13.6118H17.4474L17.9896 14.2446L18.5504 13.6118H19.9591C20.3092 13.6118 20.7018 13.7137 20.7018 14.249L20.702 14.2489ZM20.2184 11.0804C20.1582 11.1162 20.0867 11.1198 20.0004 11.1198H19.4641V10.6907H20.0072C20.085 10.6907 20.1652 10.6935 20.2177 10.724C20.2745 10.7534 20.3095 10.8132 20.3095 10.8946C20.3095 10.9795 20.2753 11.0466 20.2186 11.0805L20.2184 11.0804ZM24.0403 11.3853L23.7347 10.6167L23.4324 11.3853H24.0403ZM16.9165 12.2183H16.4648L16.4622 10.7078L15.8232 12.2183H15.4365L14.7941 10.7043V12.2183H13.8972L13.7285 11.7875H12.8097L12.6395 12.2183H12.1601L12.9485 10.2868H13.6045L14.3541 12.1164V10.2868H15.0752L15.6515 11.598L16.1821 10.2868H16.9163V12.2183H16.9165ZM18.718 12.2183H17.2448V10.2868H18.718V10.6907H17.6867V11.0375H18.6929V11.4344L17.6867 11.4325V11.8187H18.718V12.2182V12.2183ZM20.7956 10.8088C20.7956 11.1144 20.5992 11.2752 20.4852 11.3227C20.5817 11.362 20.6636 11.4281 20.702 11.4863C20.7643 11.58 20.7764 11.6686 20.7764 11.8383V12.2182H20.3316L20.3298 11.975C20.3298 11.8608 20.341 11.6926 20.2589 11.6006C20.1944 11.5318 20.0976 11.5174 19.9384 11.5174H19.464V12.2182H19.024V10.2867H20.0387C20.2627 10.2867 20.4296 10.2947 20.5722 10.3807C20.7122 10.4665 20.7955 10.5923 20.7955 10.8087L20.7956 10.8088ZM21.5017 12.2183H21.0517V10.2868H21.5017V12.2183ZM26.7211 12.2183H26.0962L25.2604 10.7703L25.2612 12.2183H24.3631L24.1915 11.7875H23.2738L23.109 12.2183H22.5924C22.3772 12.2183 22.1058 12.1683 21.9534 12.0056C21.7967 11.8402 21.7174 11.6194 21.7174 11.2674C21.7174 10.9805 21.7661 10.7195 21.9551 10.5129C22.0981 10.3583 22.3208 10.2868 22.6248 10.2868H23.0508V10.7006H22.6343C22.4734 10.7006 22.3811 10.7265 22.2931 10.8159C22.2193 10.8974 22.1672 11.051 22.1672 11.2539C22.1672 11.4613 22.2056 11.6086 22.2893 11.7071C22.356 11.783 22.4797 11.8062 22.5959 11.8062H22.7944L23.4155 10.2868H24.0763L24.8225 12.1138V10.2868H25.4953L26.2705 11.632V10.2868H26.7212V12.2183H26.7211ZM12.1547 12.5991H12.9085L13.0784 12.1683H13.4588L13.6278 12.5991H15.1107V12.2702L15.2436 12.5999H16.0123L16.1443 12.2665V12.5989H19.8292L19.8274 11.8946H19.8988C19.949 11.8954 19.9636 11.9018 19.9636 11.9876V12.5991H21.8683V12.4346C22.022 12.5214 22.262 12.5991 22.5752 12.5991H23.3778L23.5494 12.1683H23.9302L24.0984 12.5991H25.6428V12.1905L25.8768 12.5991H27.1139V9.9043H25.8887V10.2234L25.7179 9.9043H24.4603V10.2234L24.3032 9.9043H22.6052C22.3208 9.9043 22.0698 9.94538 21.8683 10.0616V9.9043H20.6978V10.0616C20.568 9.94186 20.393 9.9043 20.1992 9.9043H15.918L15.6294 10.6005L15.3362 9.9043H13.9875V10.2234L13.838 9.9043H12.6885L12.1545 11.1842V12.5991H12.1547Z" fill="white"/>
<path id="Vector_3" d="M3.76405 0H36.2361C37.2718 0 38.2129 0.4432 38.8948 1.15699C39.5767 1.87091 40.0001 2.85618 40.0001 3.94031V21.0597C40.0001 22.1437 39.5766 23.129 38.8948 23.8429C38.2128 24.5567 37.2717 25 36.2362 25H3.76417C2.72868 25 1.7874 24.5568 1.10544 23.8429C0.423604 23.1291 0.000244141 22.1439 0.000244141 21.0597V3.94031C0.000244141 2.85606 0.423604 1.87079 1.10544 1.15699C1.78728 0.4432 2.72856 0 3.76429 0H3.76405ZM36.2361 1.35812H3.76405C3.08641 1.35812 2.46984 1.64894 2.02248 2.11726C1.57512 2.58559 1.29732 3.23104 1.29732 3.94044V21.0598C1.29732 21.7691 1.57512 22.4145 2.02248 22.8829C2.46996 23.3513 3.08652 23.6421 3.76405 23.6421H36.2361C36.9135 23.6421 37.53 23.3513 37.9775 22.8829C38.4249 22.4144 38.7028 21.769 38.7028 21.0599V3.94056C38.7028 3.23142 38.425 2.58584 37.9776 2.11739C37.5303 1.64906 36.9136 1.35824 36.2361 1.35824V1.35812Z" fill="#808080"/>
</g>
<defs>
<clipPath id="clip0_501_388">
<rect width="40" height="25" fill="white"/>
</clipPath>
</defs>
</svg>
