<svg width="40" height="25" viewBox="0 0 40 25" fill="none" xmlns="http://www.w3.org/2000/svg">
<g id="apple-pay-icon 1" clip-path="url(#clip0_501_404)">
<path id="Vector" d="M3.76403 0H36.2361C37.2718 0 38.2129 0.4432 38.8948 1.15699C39.5767 1.87091 40.0001 2.85618 40.0001 3.94031V21.0597C40.0001 22.1437 39.5766 23.129 38.8948 23.8429C38.2128 24.5568 37.2717 25 36.2362 25H3.76415C2.72868 25 1.7874 24.5568 1.10544 23.8429C0.423603 23.1291 0.000244141 22.1439 0.000244141 21.0597V3.94031C0.000244141 2.85606 0.423603 1.87079 1.10544 1.15699C1.78728 0.4432 2.72856 0 3.76427 0H3.76403ZM36.2361 1.35812H3.76403C3.0864 1.35812 2.46984 1.64894 2.02248 2.11726C1.57512 2.58559 1.29732 3.23104 1.29732 3.94044V21.0598C1.29732 21.7691 1.57512 22.4145 2.02248 22.8829C2.46996 23.3513 3.08664 23.6421 3.76403 23.6421H36.2361C36.9135 23.6421 37.53 23.3513 37.9775 22.8829C38.4249 22.4144 38.7028 21.769 38.7028 21.0599V3.94056C38.7028 3.23142 38.425 2.58584 37.9776 2.11739C37.5303 1.64906 36.9136 1.35824 36.2361 1.35824V1.35812Z" fill="#808080"/>
<path id="Vector_2" fill-rule="evenodd" clip-rule="evenodd" d="M26.2209 17.0052V16.1902C26.2919 16.2088 26.452 16.2088 26.5321 16.2088C26.9769 16.2088 27.2171 16.0134 27.3639 15.5105C27.3639 15.5012 27.4485 15.2125 27.4485 15.2079L25.7583 10.3045H26.799L27.9823 14.2906H28L29.1833 10.3045H30.1974L28.4447 15.4592C28.0446 16.6466 27.582 17.0285 26.6123 17.0285C26.5323 17.0285 26.2919 17.0192 26.221 17.0053L26.2209 17.0052ZM13.6572 9.13948C13.8974 8.82505 14.0603 8.40295 14.0174 7.97156C13.6658 7.98977 13.237 8.21426 12.9887 8.52895C12.7656 8.79841 12.5682 9.23822 12.6198 9.65152C13.0144 9.68733 13.4086 9.445 13.6574 9.13948H13.6572ZM14.0128 9.73217C13.4398 9.69637 12.9526 10.0726 12.679 10.0726C12.4052 10.0726 11.9861 9.75014 11.533 9.75881C10.9431 9.76785 10.3956 10.1171 10.0964 10.6723C9.48065 11.7834 9.93389 13.4312 10.5326 14.336C10.8233 14.7836 11.1737 15.2765 11.6355 15.2589C12.0717 15.2409 12.2428 14.9631 12.7731 14.9631C13.303 14.9631 13.4571 15.2589 13.9187 15.2499C14.3976 15.241 14.697 14.8021 14.9878 14.354C15.3214 13.8437 15.458 13.351 15.4665 13.3241C15.458 13.3151 14.5431 12.9478 14.5346 11.8459C14.5259 10.9235 15.2529 10.4848 15.2871 10.4575C14.8766 9.822 14.2353 9.75026 14.0128 9.7323V9.73217ZM19.0021 8.48373C20.2475 8.48373 21.1149 9.38244 21.1149 10.6909C21.1149 12.004 20.2297 12.9074 18.971 12.9074H17.592V15.2031H16.5957V8.48373H19.0021ZM17.592 12.032H18.7352C19.6025 12.032 20.0963 11.5432 20.0963 10.6956C20.0963 9.84813 19.6026 9.36397 18.7397 9.36397H17.5922V12.0321L17.592 12.032ZM21.3751 13.8108C21.3751 12.9539 22.0023 12.4278 23.1144 12.3625L24.3953 12.2833V11.9062C24.3953 11.3614 24.0438 11.0354 23.4569 11.0354C22.9007 11.0354 22.5538 11.3148 22.4693 11.7525H21.562C21.6154 10.8677 22.3359 10.2158 23.4924 10.2158C24.6265 10.2158 25.3516 10.8444 25.3516 11.827V15.203H24.4308V14.3973H24.4086C24.1374 14.9422 23.5457 15.2868 22.9319 15.2868C22.0156 15.2868 21.375 14.6907 21.375 13.8107L21.3751 13.8108ZM24.3953 13.3684V12.9819L23.2433 13.0564C22.6695 13.0983 22.3449 13.3637 22.3449 13.7828C22.3449 14.2112 22.6829 14.4906 23.1989 14.4906C23.8704 14.4906 24.3953 14.0063 24.3953 13.3684Z" fill="black"/>
</g>
<defs>
<clipPath id="clip0_501_404">
<rect width="40" height="25" fill="white"/>
</clipPath>
</defs>
</svg>
