<svg width="40" height="25" viewBox="0 0 40 25" fill="none" xmlns="http://www.w3.org/2000/svg">
<g id="credit-card-color-icon 1" clip-path="url(#clip0_501_407)">
<path id="Vector" d="M2.05376 0H31.9176C33.04 0 33.9614 0.765605 33.9614 1.69675V17.1737C33.9614 18.1055 33.0398 18.8706 31.9176 18.8706H2.05376C0.930009 18.8706 0.0100098 18.1068 0.0100098 17.1737V1.69675C0.0100098 0.765281 0.932041 0 2.05376 0Z" fill="#3B95D9"/>
<path id="Vector_2" fill-rule="evenodd" clip-rule="evenodd" d="M2.04823 0.497803H31.9123C32.7065 0.497803 33.3564 1.03982 33.3564 1.69677V17.1738C33.3564 17.8308 32.7036 18.3728 31.9123 18.3728H2.04823C1.25698 18.3728 0.604248 17.8333 0.604248 17.1738V1.69677C0.604248 1.03735 1.25401 0.497803 2.04823 0.497803Z" fill="#42A6F1"/>
<path id="Vector_3" fill-rule="evenodd" clip-rule="evenodd" d="M0 3.6449H33.9602V8.49754H0V3.6449Z" fill="#4D5471"/>
<path id="Vector_4" d="M8.09258 6.12939H37.9563C38.5185 6.12939 39.0295 6.32062 39.3993 6.62769L39.436 6.6611C39.785 6.96661 40 7.37792 40 7.82614V23.3031C40 24.2349 39.0784 25 37.9563 25H8.09258C6.96891 25 6.04883 24.2361 6.04883 23.3031V7.82614C6.04883 7.36125 6.27844 6.93768 6.64875 6.62944L6.65258 6.62633C7.02359 6.31964 7.53328 6.12939 8.09258 6.12939Z" fill="#D54C3D"/>
<path id="Vector_5" fill-rule="evenodd" clip-rule="evenodd" d="M8.0925 6.62714H37.9562C38.7505 6.62714 39.4003 7.16915 39.4003 7.82611V23.3031C39.4003 23.9601 38.7474 24.5021 37.9562 24.5021H8.0925C7.30125 24.5021 6.64844 23.9626 6.64844 23.3031V7.82611C6.64844 7.16662 7.2982 6.62714 8.0925 6.62714Z" fill="#ED5444"/>
<path id="Vector_6" d="M9.87543 18.4105C9.70282 18.4105 9.53728 18.3536 9.41523 18.2523C9.29318 18.1509 9.22461 18.0135 9.22461 17.8702C9.22461 17.7269 9.29318 17.5894 9.41523 17.4881C9.53728 17.3868 9.70282 17.3298 9.87543 17.3298H22.9825C23.1551 17.3298 23.3206 17.3868 23.4427 17.4881C23.5647 17.5894 23.6333 17.7269 23.6333 17.8702C23.6333 18.0135 23.5647 18.1509 23.4427 18.2523C23.3206 18.3536 23.1551 18.4105 22.9825 18.4105H9.87543ZM28.8023 16.6985C29.7736 16.6985 30.6354 17.0874 31.1744 17.6879C31.7134 17.0874 32.5753 16.6985 33.5468 16.6985C35.1796 16.6985 36.5034 17.7976 36.5034 19.1532C36.5034 20.5091 35.1796 21.6081 33.5468 21.6081C32.5753 21.6081 31.7134 21.2191 31.1744 20.6186C30.6354 21.2191 29.7736 21.6081 28.8023 21.6081C27.1692 21.6081 25.8455 20.5091 25.8455 19.1532C25.8455 17.7976 27.1692 16.6985 28.8023 16.6985ZM9.87543 20.9769C9.70406 20.9754 9.54034 20.9178 9.41982 20.8166C9.2993 20.7154 9.2317 20.5789 9.2317 20.4366C9.2317 20.2943 9.2993 20.1577 9.41982 20.0566C9.54034 19.9554 9.70406 19.8978 9.87543 19.8962H19.759C19.9294 19.8989 20.0918 19.957 20.2112 20.0581C20.3307 20.1591 20.3975 20.295 20.3975 20.4366C20.3975 20.5781 20.3307 20.714 20.2112 20.8151C20.0918 20.9161 19.9294 20.9742 19.759 20.9769H9.87543Z" fill="#F8D14A"/>
<path id="Vector_7" fill-rule="evenodd" clip-rule="evenodd" d="M10.9064 9.96582H15.3528C15.9199 9.96582 16.3838 10.3511 16.3838 10.8218V11.0089H9.87549V10.8218C9.87549 10.3511 10.3394 9.96582 10.9064 9.96582ZM16.3838 11.3034V13.1283H14.3648V11.3034H16.3838ZM14.0101 13.1283H12.247V11.3034H14.0101V13.1283ZM11.8922 13.1283H9.87549V11.3034H11.8922V13.1283ZM16.3838 13.4229V13.6128C16.3838 14.0835 15.9198 14.4688 15.3528 14.4688H10.9064C10.3395 14.4688 9.87549 14.0836 9.87549 13.6128V13.4229H16.3838Z" fill="#DACD71"/>
</g>
<defs>
<clipPath id="clip0_501_407">
<rect width="40" height="25" fill="white"/>
</clipPath>
</defs>
</svg>
