<svg width="14" height="14" viewBox="0 0 14 14" fill="none" xmlns="http://www.w3.org/2000/svg">
<g id="font-height-icon 1" clip-path="url(#clip0_494_114)">
<path id="Vector" d="M8.74562 2.64219H5.52918V14H3.16805V2.64219H0V0H8.74562V2.64219ZM11.0521 10.3941V3.60523H9.92469C9.80273 3.60523 9.70402 3.47986 9.70402 3.32497C9.70402 3.24162 9.73273 3.1666 9.7784 3.1152L11.6908 0.12051C11.7729 0.00764041 11.9118 0.000694582 12.0009 0.105229L13.9404 3.13465C14.0232 3.24752 14.0183 3.42464 13.9292 3.52952C13.8886 3.57784 13.835 3.60467 13.7793 3.60453L12.652 3.60523V10.3941H13.7793C13.901 10.3941 14 10.5198 14 10.6743C14 10.7546 13.9735 10.8268 13.9308 10.8779L12.0129 13.8795C11.9933 13.9064 11.9696 13.9281 11.9433 13.9434C11.9171 13.9587 11.8887 13.9672 11.8598 13.9685C11.8309 13.9698 11.8021 13.9639 11.7751 13.9511C11.748 13.9382 11.7232 13.9188 11.702 13.8937C11.0488 13.0644 10.3964 11.7322 9.76363 10.8647C9.68078 10.7518 9.6857 10.5747 9.77484 10.4698C9.81545 10.4215 9.86904 10.3946 9.92469 10.3948L11.0521 10.3941Z" fill="black"/>
</g>
<defs>
<clipPath id="clip0_494_114">
<rect width="14" height="14" fill="white"/>
</clipPath>
</defs>
</svg>
