<svg width="32" height="32" viewBox="0 0 32 32" fill="none" xmlns="http://www.w3.org/2000/svg">
<g id="Group">
<path id="Vector" d="M16.0002 14.7692C15.6458 14.7698 15.3002 14.8882 15.0107 15.1085C14.7214 15.3289 14.5022 15.6404 14.3836 16H17.6168C17.4982 15.6404 17.279 15.3289 16.9897 15.1085C16.7002 14.8882 16.3545 14.7698 16.0002 14.7692Z" fill="#FFB62A"/>
<path id="Vector_2" d="M25.8031 15.6546L23.586 14.8591L22.5242 16H25.4827L25.8031 15.6546Z" fill="#FFB62A"/>
<path id="Vector_3" d="M13.1429 15.9996V15.3842C13.1429 14.8947 12.9623 14.4249 12.6409 14.0788C12.3194 13.7327 11.8832 13.5381 11.4286 13.5381V14.1535C11.4286 14.6431 11.6093 15.1129 11.9307 15.459C12.2521 15.8051 12.6884 15.9996 13.1429 15.9996Z" fill="#FFB62A"/>
<path id="Vector_4" d="M29.0616 12.1407L28.3271 9.74261L27.0917 11.0742L27.833 11.8723L27.0249 12.7427L26.2843 11.9451L24.4871 13.8836L26.7044 14.6791L29.0616 12.1407Z" fill="#FFB62A"/>
<path id="Vector_5" d="M8.57159 27.0769H23.4288V28.3077H8.57159V27.0769Z" fill="#FFB62A"/>
<path id="Vector_6" d="M8.1542 25.846H23.8453C24.6287 25.3468 29.3214 22.1581 29.6905 17.2306H2.3089C2.67803 22.1581 7.37118 25.3467 8.15407 25.846H8.1542ZM16.5715 23.3845H17.7144V24.6152H16.5715V23.3845ZM5.12072 18.2916C5.13093 18.3309 6.21056 22.2301 9.23835 23.3845H15.4287V24.6152H9.14294C9.08146 24.6152 9.02049 24.6048 8.96233 24.5839C5.28989 23.2658 4.072 18.8191 4.02223 18.6306L5.12072 18.2916Z" fill="#FFB62A"/>
<path id="Vector_7" d="M0 29.5385V30.1539C0 30.6434 0.180611 31.1132 0.502042 31.4593C0.823473 31.8054 1.25972 32 1.71426 32H30.2857C30.7403 32 31.1766 31.8055 31.498 31.4593C31.8193 31.1132 32 30.6434 32 30.1539V29.5385H0Z" fill="#FFB62A"/>
<path id="Vector_8" d="M14.8574 9.2308H16.0003C16.0125 8.79343 16.1755 8.37665 16.4574 8.06157C16.899 7.54013 17.1439 6.85963 17.1439 6.15387C17.1439 5.44811 16.899 4.76759 16.4574 4.24617C16.1755 3.93106 16.0125 3.51432 16.0003 3.07693C16.0128 2.63957 16.1758 2.22278 16.4574 1.9077C16.8901 1.38022 17.1335 0.70358 17.1431 0H16.0003C15.9878 0.437368 15.8248 0.854157 15.5431 1.16923C15.1105 1.69671 14.8671 2.37335 14.8574 3.07693C14.8671 3.78051 15.1102 4.45744 15.5431 4.98463C15.825 5.29975 15.988 5.71649 16.0003 6.15387C15.988 6.59124 15.825 7.00802 15.5431 7.3231C15.1102 7.8503 14.8671 8.52722 14.8574 9.2308Z" fill="#FFB62A"/>
<path id="Vector_9" d="M11.4286 11.0768H12.5715C12.5838 10.6394 12.7468 10.2227 13.0287 9.90758C13.4702 9.38614 13.7152 8.70564 13.7152 7.99988C13.7152 7.29412 13.4703 6.6136 13.0287 6.09218C12.7468 5.77706 12.5838 5.36032 12.5715 4.92294C12.584 4.48557 12.747 4.06879 13.0287 3.75371C13.4613 3.22623 13.7047 2.54959 13.7144 1.84601H12.5715C12.559 2.28338 12.396 2.70017 12.1144 3.01524C11.6817 3.54272 11.4383 4.21936 11.4286 4.92294C11.4383 5.62652 11.6815 6.30345 12.1144 6.83064C12.4067 7.13806 12.5715 7.55975 12.5715 7.99988C12.5715 8.44 12.4067 8.8617 12.1144 9.16911C11.6815 9.69631 11.4383 10.3732 11.4286 11.0768Z" fill="#FFB62A"/>
<path id="Vector_10" d="M18.2857 11.0768H19.4286C19.4408 10.6394 19.6038 10.2227 19.8857 9.90758C20.3273 9.38614 20.5722 8.70564 20.5722 7.99988C20.5722 7.29412 20.3273 6.6136 19.8857 6.09218C19.6038 5.77706 19.4408 5.36032 19.4286 4.92294C19.4411 4.48557 19.6041 4.06879 19.8857 3.75371C20.3184 3.22623 20.5618 2.54959 20.5714 1.84601H19.4286C19.4161 2.28338 19.2531 2.70017 18.9714 3.01524C18.5388 3.54272 18.2954 4.21936 18.2857 4.92294C18.2954 5.62652 18.5385 6.30345 18.9714 6.83064C19.2638 7.13806 19.4286 7.55975 19.4286 7.99988C19.4286 8.44 19.2638 8.8617 18.9714 9.16911C18.5385 9.69631 18.2954 10.3732 18.2857 11.0768Z" fill="#FFB62A"/>
</g>
</svg>
