<svg width="14" height="14" viewBox="0 0 14 14" fill="none" xmlns="http://www.w3.org/2000/svg">
<g id="information-icon 1" clip-path="url(#clip0_494_130)">
<g id="Group">
<path id="Vector" d="M7 1.0516C6.78923 1.0516 6.58529 1.06071 6.39046 1.08008C6.19564 1.09945 5.99854 1.12793 5.80143 1.16781C5.60547 1.20654 5.4152 1.25553 5.23177 1.31136C5.05062 1.36719 4.87175 1.43327 4.69629 1.50732L4.6849 1.51302C4.49919 1.59277 4.32259 1.67822 4.15283 1.76937C3.98193 1.86165 3.81787 1.96077 3.66178 2.06559C3.50456 2.17155 3.35189 2.28434 3.20719 2.40397C3.0625 2.5236 2.92236 2.65007 2.78792 2.78564L2.78337 2.7902C2.64893 2.92464 2.52246 3.06364 2.40397 3.20719C2.28434 3.35303 2.17155 3.50456 2.06559 3.66178C1.96077 3.81673 1.86279 3.98079 1.77051 4.15169C1.67936 4.32145 1.59277 4.49919 1.51302 4.68376L1.50732 4.69629L1.49935 4.71224C1.42757 4.88314 1.36377 5.05859 1.30908 5.23747C1.25326 5.41862 1.20654 5.60547 1.16781 5.79915C1.12793 5.99626 1.09945 6.19222 1.08008 6.38818C1.06071 6.58415 1.0516 6.78695 1.0516 6.99772C1.0516 7.2085 1.06071 7.41244 1.08008 7.60726C1.09945 7.80208 1.12793 7.99919 1.16781 8.19629C1.20768 8.39225 1.25553 8.58252 1.3125 8.76595C1.36833 8.94483 1.43213 9.12256 1.50618 9.29688C1.51074 9.30485 1.51416 9.31283 1.51758 9.3208C1.59619 9.50309 1.6805 9.67741 1.77165 9.84489C1.86393 10.0158 1.96305 10.1799 2.06673 10.3348C2.17269 10.4932 2.28548 10.6447 2.40625 10.7905C2.52246 10.9318 2.64665 11.0685 2.77767 11.1995C2.78564 11.2064 2.79248 11.2132 2.79932 11.2212C2.93148 11.3534 3.0682 11.4764 3.20833 11.5926C3.35417 11.7122 3.5057 11.825 3.66292 11.931C3.81787 12.0358 3.98193 12.1338 4.15283 12.2261C4.32259 12.3172 4.50033 12.4038 4.6849 12.4836L4.70882 12.495C4.882 12.5679 5.05859 12.6317 5.24089 12.6875C5.4209 12.7433 5.60889 12.79 5.80143 12.8288C5.99854 12.8687 6.1945 12.8971 6.39046 12.9165C6.58643 12.9359 6.78923 12.945 7 12.945C7.21077 12.945 7.41471 12.9359 7.60954 12.9165C7.80436 12.8971 8.00146 12.8687 8.19857 12.8288C8.39453 12.7889 8.5848 12.741 8.76823 12.6841C8.94938 12.6283 9.12826 12.5622 9.30485 12.487L9.3151 12.4824V12.4813C9.50081 12.4015 9.67741 12.3161 9.84717 12.2249C10.0181 12.1327 10.1821 12.0335 10.3382 11.9287C10.4954 11.8228 10.6481 11.71 10.7928 11.5903C10.9352 11.473 11.0719 11.3488 11.2052 11.2155C11.2121 11.2087 11.2178 11.2018 11.2257 11.195C11.3568 11.064 11.4798 10.9272 11.596 10.7871C11.7157 10.6413 11.8296 10.4897 11.9355 10.3314C12.0404 10.1764 12.1383 10.0124 12.2306 9.84147C12.3218 9.67171 12.4084 9.49512 12.4881 9.30941L12.4995 9.28434C12.5724 9.1123 12.6362 8.93571 12.6921 8.75456C12.7479 8.57341 12.7946 8.38656 12.8333 8.19287C12.8732 7.99577 12.9017 7.7998 12.9211 7.60384C12.9404 7.40788 12.9495 7.20508 12.9495 6.9943C12.9495 6.78353 12.9404 6.57959 12.9211 6.38477C12.9017 6.18994 12.8732 5.99284 12.8333 5.79574C12.7935 5.59977 12.7456 5.40951 12.6886 5.22607C12.6328 5.04492 12.5667 4.86605 12.4915 4.68945L12.487 4.6792C12.4072 4.49349 12.3218 4.3169 12.2306 4.14714C12.1383 3.97624 12.0392 3.81217 11.9355 3.65723C11.8296 3.5 11.7168 3.34733 11.5972 3.20264C11.481 3.06136 11.3556 2.9235 11.2235 2.79134C11.2155 2.78451 11.2087 2.77767 11.203 2.77083C11.0708 2.63867 10.9352 2.51562 10.7939 2.39941C10.6481 2.27979 10.4966 2.16699 10.3394 2.06104C10.1833 1.95622 10.0203 1.85824 9.84945 1.76595C9.67969 1.6748 9.50309 1.58822 9.31738 1.5096L9.29574 1.49935C9.12256 1.42643 8.94483 1.36149 8.76253 1.30566C8.58252 1.24984 8.39453 1.20313 8.20085 1.16439C8.00374 1.12451 7.80778 1.09603 7.61182 1.07666C7.41471 1.06071 7.21077 1.0516 7 1.0516ZM7.21647 3.55127C7.46598 3.55127 7.66195 3.62305 7.80436 3.76546C7.94564 3.90788 8.01742 4.1027 8.01742 4.35449C8.01742 4.6097 7.89551 4.83529 7.65169 5.03467C7.4056 5.23291 7.12077 5.33317 6.79492 5.33317C6.55111 5.33317 6.35628 5.26481 6.20703 5.12809C6.05778 4.9891 5.98372 4.81022 5.98372 4.58691C5.98372 4.3055 6.10563 4.06397 6.34717 3.85775C6.58757 3.65267 6.87809 3.55127 7.21647 3.55127ZM8.60758 10.4487H5.39242V9.90755H5.99626V6.60238H5.39242V6.17171H6.89518C7.27458 6.17171 7.64828 6.12614 8.01742 6.03272V9.90755H8.60758V10.4487ZM5.59635 0.136719C5.81966 0.0922852 6.05094 0.0581055 6.28906 0.035319C6.52718 0.0113932 6.76416 0 7 0C7.23584 0 7.47282 0.0113932 7.71094 0.035319C7.94906 0.0581055 8.18034 0.0922852 8.40365 0.136719C8.62467 0.181152 8.8457 0.236979 9.06673 0.305339C9.28092 0.371419 9.49284 0.448893 9.70247 0.53776L9.72412 0.545736L9.73096 0.548014C9.94173 0.63916 10.1468 0.738281 10.3439 0.845378C10.5387 0.951335 10.7313 1.06755 10.9215 1.19515C11.1073 1.32048 11.2873 1.45378 11.4604 1.59619C11.6336 1.73861 11.7988 1.88786 11.9549 2.04622C12.1121 2.20345 12.2625 2.36865 12.4049 2.54069C12.5474 2.71387 12.6807 2.89274 12.806 3.07959C12.9302 3.2653 13.0464 3.45785 13.1546 3.65609H13.1558C13.2629 3.85433 13.3631 4.05941 13.4531 4.27018C13.4554 4.27588 13.4577 4.28158 13.46 4.28727C13.5488 4.49577 13.6263 4.70882 13.6935 4.92529C13.763 5.1486 13.82 5.37191 13.8644 5.59635C13.9089 5.81966 13.943 6.05094 13.9658 6.28906C13.9886 6.52718 14 6.76416 14 7C14 7.23584 13.9886 7.47282 13.9647 7.71094C13.9419 7.94906 13.9077 8.18034 13.8633 8.40365C13.8188 8.62467 13.763 8.8457 13.6947 9.06673C13.6286 9.28206 13.55 9.49512 13.4611 9.70703L13.4565 9.71729L13.4508 9.72982C13.3597 9.94059 13.2606 10.1457 13.1535 10.3428C13.0475 10.5376 12.9313 10.7301 12.8037 10.9204C12.6784 11.1061 12.5451 11.2861 12.4027 11.4593C12.2603 11.6325 12.111 11.7965 11.9526 11.9538C11.7954 12.111 11.6302 12.2614 11.457 12.4038C11.2839 12.5462 11.105 12.6795 10.9193 12.8037C10.7336 12.9279 10.541 13.0441 10.3428 13.1523C10.14 13.2617 9.93604 13.362 9.72868 13.4508C9.72298 13.4531 9.71729 13.4554 9.71045 13.4577C9.50195 13.5466 9.2889 13.624 9.07243 13.6912C8.84912 13.7607 8.62581 13.8177 8.40251 13.8621C8.1792 13.9066 7.94792 13.9408 7.7098 13.9635C7.47168 13.9863 7.2347 13.9977 6.99886 13.9977C6.76302 13.9977 6.52604 13.9863 6.28792 13.9635C6.0498 13.9408 5.81852 13.9066 5.59522 13.8621C5.37419 13.8177 5.15316 13.7619 4.93213 13.6935C4.7168 13.6274 4.50374 13.5488 4.29297 13.46L4.27018 13.4508C4.05941 13.3597 3.85433 13.2606 3.65723 13.1535C3.4624 13.0475 3.26986 12.9313 3.07959 12.8037C2.89388 12.6795 2.71387 12.5451 2.54183 12.4038C2.36865 12.2614 2.20345 12.111 2.04622 11.9538C1.889 11.7965 1.73861 11.6313 1.59619 11.4593C1.45378 11.2861 1.32048 11.1061 1.19515 10.9204C1.07096 10.7347 0.954753 10.5422 0.846517 10.3439C0.736003 10.1411 0.636882 9.93604 0.548014 9.72868C0.545736 9.72298 0.543457 9.71729 0.541178 9.71159C0.452311 9.50309 0.374837 9.29004 0.307617 9.07357C0.238118 8.85026 0.181152 8.62581 0.136719 8.40251C0.0922852 8.1792 0.0581055 7.94792 0.035319 7.7098C0.0113932 7.47282 0 7.23584 0 7C0 6.76416 0.0113932 6.52718 0.035319 6.28906C0.0581055 6.05094 0.0922852 5.81966 0.136719 5.59635C0.181152 5.37533 0.236979 5.1543 0.305339 4.93327C0.371419 4.71908 0.448893 4.50716 0.53776 4.29639L0.548014 4.27018C0.63916 4.05941 0.738281 3.85433 0.845378 3.65723C0.951335 3.4624 1.06755 3.26986 1.19515 3.07959C1.32048 2.89388 1.45378 2.71387 1.59619 2.54069C1.73861 2.36751 1.88786 2.20345 2.04622 2.04622C2.20345 1.889 2.36865 1.73861 2.54069 1.59619C2.71387 1.45378 2.89274 1.32048 3.07959 1.19515C3.26986 1.06755 3.4624 0.951335 3.65723 0.845378L3.67204 0.838542C3.86914 0.731445 4.06852 0.635742 4.27132 0.548014C4.27702 0.545736 4.28271 0.543457 4.28841 0.541178C4.49691 0.452311 4.70996 0.374837 4.92643 0.307617C5.1486 0.238118 5.37191 0.181152 5.59635 0.136719Z" fill="black"/>
</g>
</g>
<defs>
<clipPath id="clip0_494_130">
<rect width="14" height="14" fill="white"/>
</clipPath>
</defs>
</svg>
