<svg width="14" height="14" viewBox="0 0 14 14" fill="none" xmlns="http://www.w3.org/2000/svg">
<g id="language-translator-icon 1" clip-path="url(#clip0_494_119)">
<g id="Group">
<path id="Vector" fill-rule="evenodd" clip-rule="evenodd" d="M13.477 1.79932C13.7402 2.18064 13.9214 2.68082 13.9795 3.23877C14.0011 3.45337 14 3.63825 14 3.84955V7.33098C14 7.51916 14.0034 7.7057 13.992 7.89388C13.9419 8.67304 13.6411 9.39111 13.1877 9.81535C12.6134 10.3551 11.9572 10.2313 11.2702 10.2313C11.4969 11.136 11.9538 11.9712 12.4471 12.6035L12.2625 13.1053L12.2568 13.102C11.0617 12.6563 9.80159 11.6328 9.03369 10.2297C8.55859 10.2231 8.17008 10.2313 7.69612 10.1389C7.17431 10.5978 6.55338 10.8966 5.94042 10.8966C5.5428 11.6147 5.08024 12.2287 4.55159 12.7322C3.98079 13.2753 3.33593 13.688 2.61702 13.962C2.5817 13.9752 2.54638 13.9884 2.50992 13.9951C2.38574 14.0149 2.25585 13.9505 2.16699 13.8052C2.02115 13.5675 2.0371 13.2027 2.20117 12.9914C2.66601 12.3955 2.92578 11.7418 3.11149 10.8999C2.20458 10.8999 1.4458 11.0386 0.707514 9.97052C-0.214198 8.63342 0.0148059 5.52506 0.0615181 3.65971C0.0763293 3.06049 0.0478463 2.66596 0.213048 2.04033C0.427241 1.22486 0.871577 0.566208 1.43326 0.23936C1.95849 -0.0676793 2.52929 0.00825516 3.083 0.00825516H6.4497C6.69694 0.00825516 6.8986 0.00660441 7.15153 0.0924433C7.57763 0.234408 7.96386 0.562907 8.26578 1.03997L12.1532 1.04162C12.667 1.04162 13.1079 1.26282 13.477 1.79932ZM11.3852 7.06356H10.3633L10.222 7.79979H9.30599C9.61246 6.54522 9.92008 5.289 10.2266 4.03278C10.3371 3.57882 10.4624 2.82773 10.8646 2.82773C11.2816 2.82773 11.4194 3.5161 11.5356 3.99151L12.4676 7.79814H11.5288L11.3852 7.06356ZM11.1973 6.09787L10.876 4.49334L10.557 6.09787H11.1973ZM9.47347 11.8293L8.80924 11.0336L7.97981 12.5176L6.77555 11.0039L6.20703 11.9349L7.51155 13.4387L8.56884 13.3067L9.47347 11.8293ZM8.73291 1.62764C9.12255 3.82479 9.53841 7.68424 8.49251 9.63872C8.73974 9.64368 8.98356 9.64368 9.23079 9.64368C9.79134 10.7233 10.5114 11.4777 11.359 12.029C11.4388 12.0802 11.5197 12.1314 11.6006 12.1776C11.3123 11.6724 11.0594 11.0897 10.8988 10.4724C10.8247 10.1868 10.7848 9.93586 10.7347 9.64368C10.9671 9.64368 11.195 9.64698 11.4285 9.65853C11.9447 9.68494 12.4881 9.7064 12.9176 9.3581C13.1033 9.20788 13.2526 8.99493 13.37 8.73907C13.4736 8.50961 13.5465 8.24714 13.5784 7.96817C13.6024 7.75687 13.5944 7.52411 13.5944 7.30952V3.73565C13.5944 3.64155 13.5955 3.55571 13.591 3.46162C13.5648 2.97795 13.4167 2.53885 13.1911 2.212C12.9723 1.89341 12.6795 1.68211 12.356 1.63589C12.2728 1.62434 12.1908 1.62599 12.1076 1.62599L8.73291 1.62764ZM2.4165 2.22686H3.94775V1.60123H4.63134V2.22686H6.16829V3.25363H5.8527C5.82763 3.54251 5.78092 3.82974 5.71712 4.11367H5.71826C5.65332 4.40255 5.56445 4.69308 5.45849 4.98031C5.27848 5.46728 5.04606 5.93444 4.77718 6.38345C5.20784 7.12959 5.74104 7.77833 6.37792 8.3693L6.02587 9.16331C5.35823 8.54263 4.79085 7.85922 4.32486 7.07181C3.90787 7.65617 3.43505 8.20092 2.93831 8.6978L2.56803 7.92195C3.05908 7.43002 3.52506 6.89188 3.9261 6.31907C3.55582 5.53496 3.27327 4.65511 3.07731 3.6432L3.70507 3.38899C3.86572 4.21932 4.0913 4.94895 4.38069 5.60264C4.57779 5.25599 4.74869 4.90107 4.88427 4.53626C4.96972 4.30515 5.04264 4.06414 5.09846 3.81818H5.0996C5.14176 3.63495 5.17366 3.44511 5.19531 3.25363H2.4165V2.22686Z" fill="black"/>
</g>
</g>
<defs>
<clipPath id="clip0_494_119">
<rect width="14" height="14" fill="white"/>
</clipPath>
</defs>
</svg>
