<svg width="40" height="25" viewBox="0 0 40 25" fill="none" xmlns="http://www.w3.org/2000/svg">
<g id="maestro-icon 1" clip-path="url(#clip0_501_398)">
<path id="Vector" d="M3.76843 0H36.2405C37.2762 0 38.2173 0.4432 38.8992 1.15699C39.5811 1.87091 40.0045 2.85618 40.0045 3.94031V21.0597C40.0045 22.1437 39.581 23.129 38.8992 23.8429C38.2172 24.5567 37.2761 25 36.2406 25H3.76855C2.73307 25 1.79179 24.5568 1.10984 23.8429C0.427998 23.1291 0.00463867 22.1439 0.00463867 21.0597V3.94031C0.00463867 2.85606 0.427998 1.87079 1.10984 1.15699C1.79167 0.4432 2.73295 0 3.76867 0H3.76843ZM36.2405 1.35812H3.76843C3.09079 1.35812 2.47423 1.64894 2.02687 2.11726C1.57951 2.58559 1.30172 3.23104 1.30172 3.94044V21.0598C1.30172 21.7691 1.57951 22.4145 2.02687 22.8829C2.47435 23.3513 3.09091 23.6421 3.76843 23.6421H36.2405C36.9179 23.6421 37.5344 23.3513 37.9819 22.8829C38.4293 22.4144 38.7072 21.769 38.7072 21.0599V3.94056C38.7072 3.23142 38.4294 2.58584 37.982 2.11739C37.5347 1.64906 36.918 1.35824 36.2405 1.35824V1.35812Z" fill="#808080"/>
<path id="Vector_2" fill-rule="evenodd" clip-rule="evenodd" d="M22.5062 15.6668H17.4932V6.23523H22.5062V15.6668Z" fill="#6C6BBD"/>
<path id="Vector_3" fill-rule="evenodd" clip-rule="evenodd" d="M17.8142 10.9503C17.8142 9.037 18.6699 7.33279 20.0024 6.23446C19.028 5.43135 17.7981 4.95197 16.4617 4.95197C13.2975 4.95197 10.7327 7.63743 10.7327 10.9503C10.7327 14.2631 13.2975 16.9485 16.4617 16.9485C17.7983 16.9485 19.028 16.4692 20.0024 15.666C18.6699 14.5677 17.8142 12.8635 17.8142 10.9503Z" fill="#EB001B"/>
<path id="Vector_4" fill-rule="evenodd" clip-rule="evenodd" d="M29.2672 10.9503C29.2672 14.2631 26.7023 16.9485 23.5381 16.9485C22.2016 16.9485 20.9718 16.4692 19.9971 15.666C21.3299 14.5677 22.1856 12.8635 22.1856 10.9503C22.1856 9.037 21.3299 7.33279 19.9971 6.23446C20.9718 5.43122 22.2016 4.95197 23.5381 4.95197C26.7023 4.95197 29.2672 7.63743 29.2672 10.9503ZM29.0923 14.6662V14.4335H29.0344L28.9673 14.5933L28.9006 14.4335H28.8423V14.6662H28.8834V14.4907L28.9461 14.6422H28.9887L29.0513 14.4905V14.6663H29.0921L29.0923 14.6662ZM28.7248 14.6662V14.4732H28.7991V14.4339H28.6097V14.4732H28.684V14.6662H28.7248Z" fill="#0099DF"/>
<path id="Vector_5" fill-rule="evenodd" clip-rule="evenodd" d="M26.6119 20.013C26.6284 20.013 26.6436 20.0099 26.6575 20.0034C26.6717 19.9969 26.6842 19.9881 26.6946 19.9772C26.7053 19.9662 26.7136 19.9532 26.7198 19.9378C26.7256 19.923 26.7289 19.9069 26.7289 19.8897C26.7289 19.8726 26.7256 19.8566 26.7198 19.8417C26.7136 19.8268 26.7052 19.8136 26.6946 19.8024C26.6842 19.7914 26.6717 19.7826 26.6575 19.7764C26.6437 19.7699 26.6284 19.7669 26.6119 19.7669C26.5955 19.7669 26.5799 19.7699 26.5657 19.7764C26.5511 19.7824 26.5384 19.7914 26.5278 19.8024C26.5173 19.8135 26.5089 19.8268 26.5031 19.8417C26.4969 19.8566 26.494 19.8726 26.494 19.8897C26.494 19.9069 26.4969 19.923 26.5031 19.9378C26.5089 19.953 26.5173 19.9661 26.5278 19.9772C26.5384 19.9882 26.5511 19.997 26.5657 20.0034C26.58 20.0099 26.5956 20.013 26.6119 20.013ZM24.1964 18.3301C24.2631 18.3301 24.3588 18.3434 24.432 18.3736L24.33 18.7001C24.2601 18.6699 24.1902 18.66 24.1232 18.66C23.9067 18.66 23.7986 18.8063 23.7986 19.0695V19.9626H23.4675V18.3701H23.7953V18.5634C23.8814 18.4234 24.0056 18.3301 24.1964 18.3301ZM19.8702 19.1664C19.867 18.6699 19.5741 18.3301 19.1476 18.3301C18.702 18.3301 18.3903 18.6699 18.3903 19.1664C18.3903 19.6724 18.7149 20.0023 19.1702 20.0023C19.3992 20.0023 19.6091 19.9424 19.7938 19.7792L19.6313 19.5225C19.5042 19.6293 19.3418 19.6892 19.1891 19.6892C18.976 19.6892 18.7818 19.5858 18.7342 19.2995L19.8639 19.2994C19.8671 19.256 19.8704 19.2129 19.8704 19.1664M25.4063 18.6592C25.3383 18.6592 25.2752 18.6718 25.2166 18.6967C25.1583 18.7218 25.1076 18.757 25.065 18.8019C25.0224 18.8469 24.9888 18.9011 24.9645 18.964C24.94 19.0269 24.928 19.0964 24.928 19.1718C24.928 19.2477 24.94 19.3168 24.9645 19.3796C24.989 19.4425 25.0224 19.4966 25.065 19.5416C25.1076 19.5866 25.1583 19.6216 25.2166 19.6469C25.2753 19.672 25.3383 19.6842 25.4063 19.6842C25.4745 19.6842 25.5378 19.672 25.5962 19.6469C25.6548 19.6218 25.7058 19.5866 25.7484 19.5416C25.7918 19.4966 25.8254 19.4425 25.8501 19.3796C25.8746 19.3166 25.8865 19.2477 25.8865 19.1718C25.8865 19.0963 25.8746 19.0268 25.8501 18.964C25.8254 18.9011 25.7918 18.8469 25.7484 18.8019C25.7058 18.757 25.6548 18.7219 25.5962 18.6967C25.5378 18.6718 25.4745 18.6592 25.4063 18.6592ZM25.4063 18.3301C25.5244 18.3301 25.6336 18.3515 25.7342 18.3946C25.8347 18.4373 25.9218 18.4963 25.995 18.5714C26.0686 18.6466 26.1258 18.7355 26.1673 18.8376C26.2089 18.9403 26.2296 19.0516 26.2296 19.1717C26.2296 19.2918 26.2089 19.4032 26.1673 19.5057C26.1258 19.6078 26.0686 19.6971 25.995 19.7723C25.9218 19.8474 25.8347 19.9061 25.7342 19.9491C25.6336 19.9919 25.5244 20.0132 25.4063 20.0132C25.2884 20.0132 25.179 19.9919 25.0785 19.9491C24.9779 19.9061 24.8916 19.8474 24.8188 19.7723C24.746 19.6971 24.6887 19.608 24.6472 19.5057C24.6057 19.4031 24.5849 19.2918 24.5849 19.1717C24.5849 19.0516 24.6057 18.9401 24.6472 18.8376C24.6887 18.7355 24.746 18.6466 24.8188 18.5714C24.8916 18.4963 24.9779 18.4371 25.0785 18.3946C25.179 18.3515 25.2884 18.3301 25.4063 18.3301ZM16.8035 19.1664C16.8035 18.8865 16.9787 18.6565 17.2651 18.6565C17.5387 18.6565 17.7233 18.8766 17.7233 19.1664C17.7233 19.4562 17.5387 19.6759 17.2651 19.6759C16.9787 19.6759 16.8035 19.4463 16.8035 19.1664ZM26.5863 19.8432V19.8826H26.6208C26.6285 19.8826 26.635 19.8807 26.6394 19.8777C26.6442 19.8747 26.6467 19.8692 26.6467 19.8628C26.6467 19.8564 26.6442 19.8514 26.6394 19.8484C26.635 19.8449 26.6285 19.8435 26.6208 19.8435H26.5863V19.8432ZM22.9733 18.6866H22.4324V19.4062C22.4324 19.566 22.4862 19.6728 22.652 19.6728C22.738 19.6728 22.8461 19.6426 22.9444 19.5827L23.0398 19.879C22.9349 19.9557 22.7696 20.0025 22.6264 20.0025C22.2348 20.0025 22.0982 19.7824 22.0982 19.4126V18.6865H21.7893V18.3699H22.0982V17.8868H22.4322V18.3699H22.9732V18.6865L22.9733 18.6866ZM18.7371 19.0264C18.7725 18.7965 18.9058 18.6398 19.1415 18.6398C19.3546 18.6398 19.4915 18.7797 19.5266 19.0264H18.7372H18.7371ZM21.3246 18.7767C21.2325 18.7164 21.0449 18.6398 20.8506 18.6398C20.6692 18.6398 20.5611 18.71 20.5611 18.8267C20.5611 18.9331 20.6754 18.9633 20.8186 18.983L20.9745 19.0062C21.3056 19.0566 21.506 19.2031 21.506 19.4828C21.506 19.786 21.2513 20.0025 20.8124 20.0025C20.564 20.0025 20.3348 19.9358 20.1534 19.7959L20.3093 19.5259C20.4208 19.6159 20.5865 19.6925 20.8157 19.6925C21.0416 19.6925 21.1625 19.6226 21.1625 19.4992C21.1625 19.4096 21.0765 19.3592 20.8952 19.333L20.7393 19.3097C20.3987 19.2593 20.2139 19.0996 20.2139 18.8399C20.2139 18.5233 20.4623 18.33 20.8474 18.33C21.0893 18.33 21.3089 18.3868 21.4678 18.4967L21.3246 18.7766V18.7767ZM18.0352 19.1664V18.3701H17.7045V18.5634C17.5991 18.4201 17.4404 18.3301 17.224 18.3301C16.7974 18.3301 16.4633 18.6797 16.4633 19.1664C16.4633 19.6525 16.7974 20.0027 17.224 20.0027C17.4404 20.0027 17.5991 19.9126 17.7045 19.7693V19.9626H18.0352V19.1664ZM16.1705 19.9626V18.9631C16.1705 18.5868 15.9415 18.3335 15.5723 18.3301C15.3782 18.3266 15.1775 18.3899 15.0376 18.6135C14.9327 18.4369 14.767 18.3301 14.5346 18.3301C14.3725 18.3301 14.2133 18.3801 14.089 18.5665V18.3702H13.7583V19.9627H14.0923V19.08C14.0923 18.8035 14.2387 18.6566 14.4645 18.6566C14.6842 18.6566 14.7956 18.8065 14.7956 19.0764V19.9627H15.1297V19.08C15.1297 18.8035 15.2827 18.6566 15.5019 18.6566C15.7281 18.6566 15.8363 18.8065 15.8363 19.0764V19.9627H16.1703L16.1705 19.9626ZM26.6212 19.8157C26.6391 19.8157 26.653 19.8199 26.6627 19.8283C26.6725 19.8367 26.6772 19.8481 26.6772 19.8626C26.6772 19.8748 26.6735 19.8847 26.6656 19.8927C26.6579 19.9004 26.6466 19.9053 26.6325 19.9072L26.6784 19.9625H26.6428L26.6002 19.9076H26.5863V19.9625H26.5564V19.8156H26.6212V19.8157ZM26.6121 19.7314C26.6335 19.7314 26.6532 19.7356 26.6718 19.744C26.6908 19.752 26.7069 19.7635 26.721 19.7779C26.7348 19.7921 26.7457 19.8088 26.7538 19.8282C26.7618 19.8473 26.7658 19.8679 26.7658 19.8896C26.7658 19.9113 26.7618 19.9319 26.7538 19.951C26.7457 19.97 26.7348 19.9868 26.721 20.0009C26.7067 20.0154 26.6908 20.0269 26.6718 20.0352C26.6532 20.0436 26.6335 20.0478 26.6121 20.0478C26.5902 20.0478 26.5702 20.0436 26.5512 20.0352C26.5324 20.0268 26.5158 20.0154 26.5021 20.0009C26.4882 19.9868 26.4773 19.97 26.4693 19.951C26.4612 19.9319 26.4573 19.9113 26.4573 19.8896C26.4573 19.8679 26.4612 19.8473 26.4693 19.8282C26.4773 19.8087 26.4882 19.792 26.5021 19.7779C26.5159 19.7635 26.5324 19.752 26.5512 19.744C26.5702 19.7356 26.5902 19.7314 26.6121 19.7314Z" fill="#231F20"/>
</g>
<defs>
<clipPath id="clip0_501_398">
<rect width="40" height="25" fill="white"/>
</clipPath>
</defs>
</svg>
