<svg width="14" height="14" viewBox="0 0 14 14" fill="none" xmlns="http://www.w3.org/2000/svg">
<g id="male-services-support-icon 1" clip-path="url(#clip0_494_116)">
<g id="Group">
<path id="Vector" d="M10.7701 4.10381C10.7701 4.23256 10.6645 4.33738 10.5347 4.33738C10.405 4.33738 10.2994 4.23256 10.2994 4.10381V3.1935C10.2994 2.83689 10.2063 2.4723 10.0456 2.13962C9.87796 1.79327 9.63914 1.47881 9.35553 1.2407C8.75043 0.731418 7.95702 0.475071 7.15903 0.465956C6.35069 0.456841 5.54121 0.701796 4.91889 1.19398C4.61806 1.4321 4.34364 1.74314 4.15189 2.09177C3.9854 2.39483 3.88206 2.72637 3.88206 3.06019V4.11293L3.88895 4.11065L4.10137 4.37155C4.08529 3.95342 4.083 3.50453 4.10137 3.10919C4.11515 2.97361 4.14156 2.83803 4.17945 2.70245C4.52276 1.48337 5.92471 0.771295 7.1441 0.837375C8.08792 0.888645 8.97433 1.23158 9.53465 1.87188C10.3154 2.76853 10.1133 3.87367 10.0869 4.96742C10.2626 5.02097 10.3751 5.13034 10.4211 5.30922C10.4716 5.50746 10.4165 5.78545 10.2477 6.16599C10.2442 6.17282 10.2408 6.17966 10.2373 6.1865L9.51628 7.36456C9.23841 7.81801 8.95596 8.27374 8.5805 8.62351L8.56901 8.63376C8.61265 8.70098 8.66087 8.77732 8.71024 8.85821C8.82736 9.0462 8.9594 9.25583 9.08685 9.43471C9.87796 10.026 11.9045 10.1616 12.675 10.5877C12.9276 10.7278 13.1561 10.9056 13.3386 11.146C13.7922 11.7407 13.8278 12.5633 14.0011 13.289C13.961 13.7174 13.7164 13.9635 13.2342 14H0.766997C0.285902 13.9635 0.0413352 13.7174 0 13.289C0.173378 12.5633 0.207824 11.7407 0.662511 11.146C0.846223 10.9056 1.07357 10.7278 1.32617 10.5877C2.09776 10.1605 4.12548 10.0249 4.91544 9.43357C5.03945 9.16013 5.16805 8.73516 5.24842 8.47198L5.24957 8.46628L5.28172 8.36488C5.28516 8.35235 5.2909 8.3421 5.29665 8.3307C5.07045 8.06296 4.87526 7.76218 4.6881 7.4671L4.06922 6.4907C4.02214 6.48728 3.97622 6.4793 3.93029 6.46449C3.43427 6.30954 3.02321 5.21579 3.10358 4.69968C3.14951 4.40687 3.254 4.30206 3.42278 4.23825C3.41475 4.21433 3.41015 4.18926 3.41015 4.16306V3.06019C3.41015 2.64548 3.53531 2.23874 3.73854 1.8696C3.96129 1.464 4.27934 1.10284 4.62495 0.8294C5.33224 0.268853 6.24965 -0.00914169 7.16132 -2.71085e-05C8.0661 0.0102268 8.96744 0.301894 9.65866 0.884088C9.99163 1.16436 10.2729 1.53236 10.4693 1.9391C10.6599 2.33559 10.7713 2.76853 10.7713 3.19463V4.10381H10.7701ZM8.34167 8.81947C7.99721 9.07012 7.58156 9.22621 7.05224 9.22507C6.4391 9.22393 5.97753 8.99151 5.59862 8.64743C5.57106 8.62237 5.54351 8.5973 5.5171 8.5711C5.41261 8.91632 5.22775 9.52471 5.05438 9.78676C5.25416 10.9261 5.69852 11.7407 6.10383 12.6077L6.66185 10.6857C6.59067 10.5661 6.55737 10.4612 6.55278 10.3712C6.26687 10.5307 5.95916 10.6367 5.63881 10.7073C5.28976 10.3131 5.2599 9.90183 5.63881 9.46547C6.06709 9.57257 6.46092 9.75486 6.8226 10.0009C6.90872 9.97247 7.00631 9.96563 7.10047 9.98044C7.48511 9.70586 7.97884 9.59763 8.40941 9.39255C8.92036 9.88588 8.86525 10.3405 8.36349 10.7632C8.06036 10.6937 7.77331 10.5843 7.50004 10.4407C7.4966 10.5136 7.47822 10.5957 7.44263 10.6857L8.00066 12.6077C8.43238 11.7065 8.88132 10.8121 8.98351 9.78904C8.81243 9.57029 8.63102 9.28318 8.47486 9.03253C8.42779 8.95733 8.38301 8.88555 8.34167 8.81947ZM4.41253 5.1987L4.68695 5.94496C4.7168 6.03155 4.72599 6.10674 4.71336 6.17169L4.71566 6.16941C5.14508 6.64223 5.6744 6.98402 6.31165 7.18454C6.3438 7.11163 6.38858 7.04782 6.45403 6.99769C6.64808 6.84844 7.21758 6.86211 7.39326 7.00681C7.54023 7.12758 7.54252 7.40557 7.43344 7.55027C7.2061 7.85219 6.25998 7.59812 5.94308 7.49672C5.43787 7.33493 4.97745 6.94642 4.55835 6.59779L4.98893 7.27683C5.24268 7.67673 5.50791 8.08461 5.8386 8.38425C6.15665 8.6725 6.54129 8.86732 7.05109 8.86846C7.60338 8.8696 8.0064 8.6668 8.33478 8.3626C8.6758 8.04587 8.94448 7.61179 9.20971 7.17885L9.92159 6.01446C10.0548 5.71368 10.103 5.51202 10.072 5.39467C10.0536 5.32403 9.97556 5.28985 9.84237 5.28301C9.81366 5.28187 9.78496 5.28187 9.75511 5.28187C9.72296 5.28301 9.68966 5.28529 9.65521 5.28757C9.63569 5.28871 9.61732 5.28757 9.6001 5.28415C9.53695 5.28757 9.4715 5.28301 9.4049 5.2739L9.64947 4.20294C7.83876 4.48549 6.48503 3.15248 4.57213 3.93633L4.70992 5.1987C4.63299 5.20212 4.5595 5.19984 4.49176 5.18959C4.46535 5.19415 4.43779 5.19642 4.41253 5.1987Z" fill="black"/>
</g>
</g>
<defs>
<clipPath id="clip0_494_116">
<rect width="14" height="14" fill="white"/>
</clipPath>
</defs>
</svg>
