<svg width="40" height="25" viewBox="0 0 40 25" fill="none" xmlns="http://www.w3.org/2000/svg">
<g id="master-card-icon 1" clip-path="url(#clip0_501_392)">
<path id="Vector" fill-rule="evenodd" clip-rule="evenodd" d="M13.8312 18.3492C13.7793 18.2948 13.7179 18.2525 13.6466 18.2223C13.5755 18.1923 13.4975 18.1771 13.4127 18.1771C13.3679 18.1771 13.3214 18.1811 13.2731 18.1893C13.2247 18.1972 13.1775 18.2117 13.1311 18.232C13.0848 18.2525 13.0406 18.2808 12.9989 18.3169C12.9571 18.353 12.9206 18.3986 12.8898 18.4535C12.84 18.3673 12.7724 18.2997 12.6873 18.2506C12.6021 18.2017 12.5047 18.1771 12.3951 18.1771C12.3583 18.1771 12.3203 18.1806 12.2808 18.1875C12.2414 18.1946 12.2023 18.2066 12.1635 18.2238C12.1247 18.2412 12.0876 18.2645 12.0522 18.2942C12.0168 18.3238 11.9847 18.3613 11.9558 18.4065V18.2174H11.645V19.7656H11.9587V18.9075C11.9587 18.8418 11.9687 18.7834 11.9886 18.7321C12.0085 18.6809 12.0353 18.6382 12.0686 18.6037C12.102 18.5691 12.141 18.5431 12.1859 18.5253C12.2307 18.5076 12.2785 18.4986 12.3293 18.4986C12.4349 18.4986 12.5168 18.5335 12.575 18.6037C12.6332 18.6737 12.6624 18.774 12.6624 18.9042V19.7656H12.9762V18.9075C12.9762 18.8418 12.9861 18.7834 13.0061 18.7321C13.026 18.6809 13.0526 18.6382 13.086 18.6037C13.1193 18.5691 13.1585 18.5431 13.2032 18.5253C13.2481 18.5076 13.2959 18.4986 13.3467 18.4986C13.4522 18.4986 13.5342 18.5335 13.5925 18.6037C13.6508 18.6737 13.6799 18.774 13.6799 18.9042V19.7656H13.9937V18.7927C13.9937 18.7022 13.9794 18.6193 13.9511 18.5438C13.9227 18.4684 13.8825 18.4035 13.8308 18.3491L13.8312 18.3492ZM28.563 19.6611V19.6867H28.5912C28.597 19.6867 28.6015 19.6859 28.6045 19.684C28.6076 19.6821 28.6092 19.6788 28.6092 19.6742C28.6092 19.6695 28.6076 19.6663 28.6045 19.6642C28.6014 19.6621 28.597 19.6611 28.5912 19.6611H28.563ZM28.5919 19.6269C28.6103 19.6269 28.6242 19.6312 28.6337 19.6398C28.6432 19.6483 28.648 19.6596 28.648 19.674C28.648 19.6852 28.6446 19.6945 28.6378 19.7019C28.6309 19.7092 28.621 19.7142 28.608 19.7164L28.6496 19.7668H28.6046L28.5674 19.7179H28.5631V19.7668H28.5256V19.6268H28.592L28.5919 19.6269ZM28.5832 19.8112C28.5982 19.8112 28.6123 19.8082 28.6255 19.8022C28.6386 19.7962 28.6502 19.788 28.66 19.7778C28.6697 19.7675 28.6774 19.7553 28.6831 19.7415C28.6886 19.7277 28.6914 19.7129 28.6914 19.6968C28.6914 19.6811 28.6886 19.6663 28.6831 19.6523C28.6775 19.6384 28.6698 19.6263 28.66 19.6161C28.6504 19.606 28.6387 19.5978 28.6255 19.5919C28.6123 19.586 28.5982 19.583 28.5832 19.583C28.5677 19.583 28.5534 19.586 28.5401 19.5919C28.5268 19.5979 28.5151 19.606 28.5053 19.6161C28.4956 19.6263 28.4876 19.6384 28.4821 19.6523C28.4766 19.6663 28.4737 19.6811 28.4737 19.6968C28.4737 19.7127 28.4765 19.7277 28.4821 19.7415C28.4876 19.7553 28.4954 19.7675 28.5053 19.7778C28.5151 19.788 28.5268 19.7962 28.5401 19.8022C28.5534 19.8082 28.5677 19.8112 28.5832 19.8112ZM28.5832 19.5391C28.6046 19.5391 28.6248 19.5433 28.6436 19.5517C28.6625 19.5599 28.6789 19.5713 28.6928 19.5855C28.7069 19.5998 28.7179 19.6164 28.726 19.6355C28.7341 19.6547 28.7381 19.6751 28.7381 19.6969C28.7381 19.7185 28.7341 19.739 28.726 19.7581C28.7179 19.7772 28.707 19.7941 28.6928 19.8085C28.6789 19.823 28.6625 19.8343 28.6436 19.8426C28.6248 19.851 28.6046 19.8552 28.5832 19.8552C28.5612 19.8552 28.5407 19.851 28.5217 19.8426C28.5026 19.8343 28.4862 19.823 28.4722 19.8085C28.4582 19.7941 28.4472 19.7773 28.4393 19.7581C28.4314 19.739 28.4273 19.7184 28.4273 19.6969C28.4273 19.6751 28.4312 19.6548 28.4393 19.6355C28.4472 19.6164 28.4582 19.5997 28.4722 19.5855C28.4862 19.5713 28.5026 19.5599 28.5217 19.5517C28.5407 19.5433 28.5612 19.5391 28.5832 19.5391ZM22.3606 18.6338C22.4016 18.5902 22.4506 18.5561 22.5072 18.5319C22.5638 18.5076 22.625 18.4954 22.6909 18.4954C22.7635 18.4954 22.8307 18.5075 22.893 18.5319C22.9532 18.5552 23.0054 18.588 23.0497 18.6296L23.205 18.3591C23.1468 18.3104 23.0812 18.2705 23.0082 18.2394C22.9109 18.198 22.8053 18.1772 22.6909 18.1772C22.5767 18.1772 22.471 18.198 22.3736 18.2394C22.2763 18.2809 22.1926 18.338 22.122 18.4108C22.0516 18.4834 21.9962 18.5694 21.9562 18.6686C21.916 18.7677 21.8958 18.8753 21.8958 18.9917C21.8958 19.1081 21.9158 19.2158 21.9562 19.315C21.9962 19.4141 22.0516 19.4999 22.122 19.5728C22.1924 19.6455 22.2763 19.7026 22.3736 19.7441C22.471 19.7856 22.5767 19.8063 22.6909 19.8063C22.8053 19.8063 22.9109 19.7856 23.0082 19.7441C23.0812 19.713 23.1468 19.6732 23.205 19.6243L23.0497 19.3538C23.0054 19.3954 22.9532 19.4281 22.893 19.4516C22.8307 19.4758 22.7634 19.488 22.6909 19.488C22.6252 19.488 22.5638 19.4759 22.5072 19.4516C22.4506 19.4273 22.4016 19.3934 22.3606 19.3498C22.3194 19.3062 22.287 19.254 22.2634 19.1932C22.2397 19.1321 22.228 19.0651 22.228 18.9918C22.228 18.9185 22.2397 18.8515 22.2634 18.7907C22.287 18.7296 22.3195 18.6775 22.3607 18.6339L22.3606 18.6338ZM27.5684 19.1889C27.5468 19.2493 27.5164 19.3016 27.4772 19.3457C27.4381 19.3899 27.3913 19.4246 27.3368 19.4498C27.2824 19.4752 27.2215 19.4879 27.1548 19.4879C27.0847 19.4879 27.0222 19.4747 26.9672 19.4483C26.9122 19.4219 26.8656 19.3864 26.8274 19.3416C26.7894 19.2969 26.7601 19.2444 26.7395 19.1841C26.7188 19.1237 26.7086 19.0597 26.7086 18.9918C26.7086 18.9239 26.719 18.8599 26.7395 18.7995C26.7601 18.7392 26.7894 18.6866 26.8274 18.6419C26.8656 18.5972 26.9122 18.5616 26.9672 18.5353C27.0222 18.5088 27.0848 18.4956 27.1548 18.4956C27.2215 18.4956 27.2824 18.5083 27.3368 18.5336C27.3914 18.5589 27.4382 18.5937 27.4772 18.6379C27.5164 18.6821 27.5467 18.7343 27.5684 18.7947C27.59 18.855 27.6007 18.9206 27.6007 18.9918C27.6007 19.063 27.5899 19.1287 27.5684 19.189V19.1889ZM27.5808 17.5883V18.4051C27.5292 18.3363 27.4655 18.2809 27.3893 18.2396C27.3131 18.198 27.222 18.1772 27.116 18.1772C27.012 18.1772 26.9153 18.1973 26.8258 18.2378C26.7362 18.2782 26.658 18.3345 26.591 18.4066C26.5241 18.4787 26.4716 18.5647 26.4336 18.6644C26.3953 18.764 26.3764 18.8731 26.3764 18.9917C26.3764 19.1102 26.3953 19.2193 26.4336 19.3189C26.4716 19.4187 26.5241 19.5046 26.591 19.5768C26.6579 19.6489 26.7361 19.7052 26.8258 19.7457C26.9153 19.7861 27.012 19.8062 27.116 19.8062C27.2219 19.8062 27.3131 19.7857 27.3893 19.7448C27.4654 19.7039 27.5292 19.6489 27.5808 19.5801V19.7659H27.9034V17.5883H27.5808ZM26.0737 18.1772C25.983 18.1772 25.9013 18.1945 25.8282 18.2289C25.7551 18.2634 25.6939 18.3463 25.6446 18.4207V18.2177H25.3516V19.7659H25.6477V18.9141C25.6477 18.8484 25.6564 18.7897 25.674 18.738C25.6915 18.6863 25.7156 18.6427 25.7465 18.6071C25.7773 18.5716 25.8145 18.5446 25.8577 18.5262C25.901 18.5079 25.9483 18.4987 25.9997 18.4987C26.0389 18.4987 26.081 18.5036 26.1263 18.5134C26.1494 18.5183 26.1709 18.5243 26.1911 18.5315L26.2865 18.2084C26.2606 18.1997 26.2344 18.1924 26.2074 18.1877C26.1677 18.1806 26.1232 18.1772 26.0738 18.1772H26.0737ZM21.5882 18.1772C21.4978 18.1772 21.4159 18.1945 21.3428 18.2289C21.2698 18.2634 21.2086 18.3463 21.1591 18.4207V18.2177H20.8662V19.7659H21.1622V18.9141C21.1622 18.8484 21.171 18.7897 21.1885 18.738C21.206 18.6863 21.2302 18.6427 21.2611 18.6071C21.2921 18.5716 21.329 18.5446 21.3724 18.5262C21.4154 18.5079 21.4628 18.4987 21.5143 18.4987C21.5536 18.4987 21.5957 18.5036 21.641 18.5134C21.6641 18.5183 21.6857 18.5243 21.7058 18.5315L21.8012 18.2084C21.7753 18.1997 21.749 18.1924 21.722 18.1877C21.6824 18.1806 21.6379 18.1772 21.5885 18.1772H21.5882ZM18.6752 19.4572C18.6233 19.4777 18.572 19.4879 18.5216 19.4879C18.4886 19.4879 18.458 19.4825 18.4297 19.4717C18.4014 19.461 18.3768 19.444 18.3555 19.4208C18.3344 19.3977 18.3177 19.3678 18.3054 19.3311C18.2929 19.2945 18.2868 19.2502 18.2868 19.1986V18.5246H18.8051V18.2176H18.2868V17.7489H17.9627V18.2176H17.6678V18.5246H17.9627V19.205C17.9627 19.4109 18.0091 19.5624 18.1022 19.66C18.1955 19.7575 18.3259 19.8062 18.4937 19.8062C18.5874 19.8062 18.6714 19.7911 18.746 19.761C18.7953 19.741 18.8411 19.7181 18.8839 19.693L18.7736 19.4102C18.7424 19.4277 18.7097 19.4434 18.6751 19.4571L18.6752 19.4572ZM24.5872 19.1889C24.5656 19.2493 24.5352 19.3016 24.4961 19.3457C24.457 19.3899 24.4102 19.4246 24.3556 19.4498C24.3011 19.4752 24.2404 19.4879 24.1734 19.4879C24.1034 19.4879 24.0409 19.4747 23.9858 19.4483C23.9308 19.4219 23.8842 19.3864 23.8462 19.3416C23.808 19.2969 23.7787 19.2444 23.7582 19.1841C23.7376 19.1237 23.7274 19.0597 23.7274 18.9918C23.7274 18.9239 23.7377 18.8599 23.7582 18.7995C23.7788 18.7392 23.8081 18.6866 23.8462 18.6419C23.8842 18.5972 23.9308 18.5616 23.9858 18.5353C24.0409 18.5088 24.1034 18.4956 24.1734 18.4956C24.2404 18.4956 24.3012 18.5083 24.3556 18.5336C24.4102 18.5589 24.457 18.5937 24.4961 18.6379C24.5352 18.6821 24.5656 18.7343 24.5872 18.7947C24.6088 18.855 24.6196 18.9206 24.6196 18.9918C24.6196 19.063 24.6088 19.1287 24.5872 19.189V19.1889ZM24.5994 18.4051C24.5479 18.3363 24.4842 18.2809 24.408 18.2396C24.3319 18.198 24.2407 18.1772 24.1348 18.1772C24.0308 18.1772 23.934 18.1973 23.8445 18.2378C23.755 18.2782 23.6767 18.3345 23.6099 18.4066C23.5429 18.4787 23.4904 18.5647 23.4523 18.6644C23.4142 18.764 23.3952 18.8731 23.3952 18.9917C23.3952 19.1102 23.4142 19.2193 23.4523 19.3189C23.4904 19.4187 23.5429 19.5046 23.6099 19.5768C23.6767 19.6489 23.755 19.7052 23.8445 19.7457C23.934 19.7861 24.0308 19.8062 24.1348 19.8062C24.2407 19.8062 24.3319 19.7857 24.408 19.7448C24.4842 19.7039 24.5479 19.6489 24.5994 19.5801V19.7659H24.9221V18.2177H24.5994V18.4051ZM19.4102 18.8593C19.4185 18.8033 19.4329 18.7517 19.4536 18.705C19.4742 18.6581 19.5007 18.6178 19.533 18.5838C19.5655 18.5498 19.604 18.5237 19.6488 18.5054C19.6937 18.487 19.7448 18.4779 19.8024 18.4779C19.9052 18.4779 19.9892 18.5113 20.054 18.5781C20.119 18.6449 20.16 18.7387 20.1775 18.8593H19.4102ZM20.3126 18.4027C20.2513 18.3311 20.1778 18.2756 20.092 18.2363C20.0059 18.197 19.9116 18.1772 19.8088 18.1772C19.6996 18.1772 19.6 18.1968 19.5098 18.2363C19.4197 18.2756 19.3423 18.331 19.2775 18.4027C19.2126 18.4743 19.1623 18.5603 19.1262 18.6605C19.0902 18.7608 19.0722 18.8712 19.0722 18.9918C19.0722 19.1146 19.0908 19.2261 19.1277 19.3263C19.1648 19.4266 19.2167 19.5121 19.2836 19.5832C19.3506 19.6543 19.4304 19.7093 19.523 19.748C19.6156 19.7869 19.7176 19.8063 19.8287 19.8063C19.9409 19.8063 20.0477 19.7901 20.1491 19.7578C20.2505 19.7256 20.3464 19.6689 20.4371 19.5881L20.2766 19.3473C20.2148 19.3989 20.1466 19.4391 20.0719 19.4676C19.9973 19.4963 19.9229 19.5105 19.8488 19.5105C19.7963 19.5105 19.7459 19.5031 19.6975 19.4879C19.6492 19.4728 19.6054 19.4494 19.5662 19.4176C19.5271 19.3859 19.4936 19.3452 19.4658 19.2955C19.4381 19.246 19.419 19.1862 19.4087 19.1162H20.5018C20.5038 19.0968 20.5054 19.0763 20.5064 19.0547C20.5074 19.0332 20.508 19.0116 20.508 18.99C20.508 18.8694 20.4907 18.7593 20.4563 18.6595C20.422 18.5599 20.3741 18.4742 20.3128 18.4025L20.3126 18.4027ZM17.2916 18.9894C17.2009 18.9157 17.0749 18.8664 16.9134 18.8417L16.7605 18.8173C16.7264 18.8119 16.6945 18.8057 16.6647 18.7987C16.635 18.7917 16.6092 18.7822 16.5876 18.7704C16.5661 18.7586 16.5487 18.7434 16.5359 18.7252C16.523 18.7069 16.5167 18.6843 16.5167 18.6572C16.5167 18.6022 16.5411 18.5578 16.59 18.5238C16.6388 18.4899 16.7076 18.4731 16.796 18.4731C16.8423 18.4731 16.8879 18.4772 16.9327 18.486C16.9775 18.4947 17.0198 18.5054 17.06 18.5182C17.1001 18.5311 17.1367 18.5454 17.1697 18.5611C17.2026 18.5767 17.2304 18.5917 17.2531 18.6055L17.3919 18.3422C17.3148 18.2904 17.2248 18.2504 17.1218 18.2217C17.019 18.1932 16.9093 18.1789 16.7929 18.1789C16.6982 18.1789 16.6134 18.1906 16.5381 18.2137C16.4631 18.2368 16.3991 18.2697 16.346 18.3122C16.293 18.3549 16.2523 18.4068 16.224 18.4682C16.1955 18.5297 16.1816 18.5986 16.1816 18.6751C16.1816 18.8001 16.224 18.9011 16.3088 18.9782C16.3938 19.0552 16.5187 19.1056 16.6832 19.1292L16.8377 19.1503C16.9262 19.1631 16.991 19.184 17.0323 19.2125C17.0735 19.241 17.094 19.2773 17.094 19.3217C17.094 19.3797 17.0657 19.4258 17.009 19.4597C16.9524 19.4937 16.8686 19.5106 16.7574 19.5106C16.6967 19.5106 16.6424 19.5063 16.5945 19.4977C16.5468 19.489 16.5029 19.4776 16.4634 19.463C16.4237 19.4484 16.3881 19.4318 16.3567 19.413C16.3254 19.3942 16.2962 19.3739 16.2696 19.3524L16.1198 19.6061C16.1733 19.648 16.2295 19.6821 16.2881 19.708C16.3469 19.7337 16.4043 19.7539 16.461 19.7684C16.5176 19.7831 16.5711 19.7926 16.6215 19.7974C16.6719 19.8023 16.7162 19.8048 16.7543 19.8048C16.8602 19.8048 16.9553 19.7925 17.0391 19.7676C17.1231 19.7428 17.1936 19.7081 17.2507 19.6632C17.3079 19.6185 17.3515 19.5653 17.382 19.5033C17.4125 19.4414 17.4275 19.3733 17.4275 19.2989C17.4275 19.1664 17.3823 19.0633 17.2917 18.9894H17.2916ZM15.4734 19.189C15.4518 19.2494 15.4214 19.3017 15.3823 19.3458C15.3432 19.39 15.2964 19.4247 15.2419 19.4499C15.1873 19.4753 15.1266 19.488 15.0597 19.488C14.9898 19.488 14.9271 19.4748 14.8722 19.4484C14.8171 19.422 14.7705 19.3865 14.7325 19.3418C14.6943 19.297 14.6651 19.2445 14.6445 19.1842C14.6239 19.1238 14.6137 19.0599 14.6137 18.9919C14.6137 18.9241 14.624 18.86 14.6445 18.7996C14.6652 18.7393 14.6945 18.6868 14.7325 18.642C14.7705 18.5973 14.8172 18.5618 14.8722 18.5354C14.9273 18.5089 14.9898 18.4957 15.0597 18.4957C15.1266 18.4957 15.1873 18.5084 15.2419 18.5338C15.2964 18.559 15.3432 18.5938 15.3823 18.638C15.4214 18.6822 15.4518 18.7344 15.4734 18.7948C15.495 18.8551 15.5058 18.9207 15.5058 18.9919C15.5058 19.0631 15.495 19.1288 15.4734 19.1891V19.189ZM15.4857 18.4052C15.4343 18.3364 15.3704 18.281 15.2942 18.2397C15.218 18.1981 15.1269 18.1774 15.021 18.1774C14.9171 18.1774 14.8203 18.1975 14.7307 18.2379C14.6412 18.2784 14.5629 18.3346 14.4961 18.4068C14.4291 18.4789 14.3767 18.5648 14.3385 18.6645C14.3005 18.7642 14.2814 18.8732 14.2814 18.9918C14.2814 19.1104 14.3005 19.2194 14.3385 19.319C14.3767 19.4188 14.4291 19.5047 14.4961 19.5769C14.5629 19.649 14.6412 19.7053 14.7307 19.7458C14.8203 19.7862 14.9171 19.8063 15.021 19.8063C15.1269 19.8063 15.2181 19.7859 15.2942 19.7449C15.3704 19.7041 15.4343 19.649 15.4857 19.5802V19.766H15.8084V18.2178H15.4857V18.4052Z" fill="#141515"/>
<path id="Vector_2" fill-rule="evenodd" clip-rule="evenodd" d="M17.6476 10.9801C17.6476 9.12516 18.4753 7.47383 19.7641 6.4049C18.8137 5.61674 17.6132 5.1449 16.3067 5.1449C13.2283 5.1449 10.7327 7.75749 10.7327 10.98C10.7327 14.2026 13.2282 16.8151 16.3067 16.8151C17.6132 16.8151 18.8137 16.3434 19.7641 15.5552C18.4753 14.4864 17.6476 12.8349 17.6476 10.98V10.9801Z" fill="#DE2C1D"/>
<path id="Vector_3" fill-rule="evenodd" clip-rule="evenodd" d="M17.6477 10.9801C17.6477 12.8352 18.4755 14.4865 19.7643 15.5553C21.0531 14.4865 21.8807 12.8351 21.8807 10.9801C21.8807 9.12516 21.0529 7.47384 19.7643 6.40491C18.4755 7.47371 17.6477 9.12516 17.6477 10.9801Z" fill="#ED6100"/>
<path id="Vector_4" fill-rule="evenodd" clip-rule="evenodd" d="M23.2217 5.1449C21.9152 5.1449 20.7147 5.61674 19.7644 6.4049C21.0532 7.47371 21.8808 9.12516 21.8808 10.9801C21.8808 12.8352 21.0531 14.4865 19.7644 15.5553C20.7147 16.3435 21.9152 16.8152 23.2217 16.8152C26.3001 16.8152 28.7956 14.2028 28.7956 10.9801C28.7956 7.7575 26.3001 5.14502 23.2217 5.14502V5.1449ZM29.1874 14.3481V14.1004L29.1106 14.3142H29.0259L28.9491 14.1009V14.3481H28.8692V13.991H28.9837L29.0685 14.2196L29.1525 13.991H29.2672V14.3481H29.1872H29.1874ZM28.6144 14.3481V14.068H28.5061V13.991H28.8025V14.068H28.6942V14.3481H28.6143H28.6144Z" fill="#F79F06"/>
<path id="Vector_5" d="M3.76405 0H36.2361C37.2718 0 38.2129 0.4432 38.8948 1.15699C39.5767 1.87091 40.0001 2.85618 40.0001 3.94031V21.0597C40.0001 22.1437 39.5766 23.129 38.8948 23.8429C38.2128 24.5567 37.2717 25 36.2362 25H3.76417C2.72868 25 1.7874 24.5568 1.10544 23.8429C0.423604 23.1291 0.000244141 22.1439 0.000244141 21.0597V3.94031C0.000244141 2.85606 0.423604 1.87079 1.10544 1.15699C1.78728 0.4432 2.72856 0 3.76429 0H3.76405ZM36.2361 1.35812H3.76405C3.08641 1.35812 2.46984 1.64894 2.02248 2.11726C1.57512 2.58559 1.29732 3.23104 1.29732 3.94044V21.0598C1.29732 21.7691 1.57512 22.4145 2.02248 22.8829C2.46996 23.3513 3.08652 23.6421 3.76405 23.6421H36.2361C36.9135 23.6421 37.53 23.3513 37.9775 22.8829C38.4249 22.4144 38.7028 21.769 38.7028 21.0599V3.94056C38.7028 3.23142 38.425 2.58584 37.9776 2.11739C37.5303 1.64906 36.9136 1.35824 36.2361 1.35824V1.35812Z" fill="#808080"/>
</g>
<defs>
<clipPath id="clip0_501_392">
<rect width="40" height="25" fill="white"/>
</clipPath>
</defs>
</svg>
