<svg width="40" height="25" viewBox="0 0 40 25" fill="none" xmlns="http://www.w3.org/2000/svg">
<g id="paytm-icon 1" clip-path="url(#clip0_501_375)">
<g id="Group">
<path id="Vector" d="M39.8665 7.37279C39.5019 5.30244 38.5123 3.8162 37.3534 3.8162H37.3274C36.5722 3.8162 35.8918 4.44574 35.4068 5.45171C34.9218 4.44574 34.2415 3.8162 33.4862 3.8162H33.4635C32.7994 3.8162 32.1907 4.30296 31.7252 5.10125V4.69886C31.7089 4.28998 31.5429 3.97196 31.3346 3.97196H29.5507C29.3326 3.97196 29.1568 4.32243 29.1568 4.75727V24.0589C29.1568 24.4938 29.3326 24.8442 29.5507 24.8442H31.3346C31.5331 24.8442 31.6991 24.5457 31.7219 24.1693V10.3128C31.7219 10.2609 31.7219 10.222 31.7252 10.1765C31.7545 9.55997 31.9823 9.04725 32.3404 8.98884H32.6692C32.8189 9.0148 32.9459 9.11864 33.0435 9.28089C33.1998 9.52752 33.2844 9.90395 33.2844 10.3193L33.2909 24.1044C33.2909 24.5392 33.4667 24.8962 33.6848 24.8962H35.4687C35.6803 24.8962 35.8495 24.5652 35.8593 24.1498V10.3063C35.8593 9.85203 35.9635 9.43666 36.149 9.19652C36.2402 9.0797 36.3508 9.00182 36.4778 8.97586H36.8066C37.1939 9.04076 37.425 9.62487 37.425 10.3063L37.4316 24.0784C37.4316 24.5132 37.6073 24.8637 37.8254 24.8637H39.6093C39.8176 24.8637 39.9902 24.5392 40.0032 24.1303V9.02778C39.9934 8.17757 39.9381 7.78167 39.8665 7.37279ZM27.7961 4.02388H26.7773V0.726895C26.7773 0.720405 26.7773 0.720405 26.7773 0.713915C26.7773 0.324507 26.6178 0 26.4159 0C26.3931 0 26.3704 0.00649014 26.3476 0.0129803C25.218 0.629543 25.4426 3.7513 23.3788 4.01739H23.1803C23.151 4.01739 23.1217 4.02388 23.0924 4.03686C22.9198 4.12124 22.7864 4.43276 22.7864 4.80919V8.36578C22.7864 8.80062 22.9622 9.15109 23.1803 9.15109H24.2545L24.2512 24.2212C24.2512 24.6495 24.427 25 24.6418 25H26.4062C26.621 25 26.7968 24.6495 26.7968 24.2212V9.15109H27.7961C28.011 9.15109 28.19 8.79413 28.19 8.36578V4.80919C28.19 4.37435 28.0142 4.02388 27.7961 4.02388Z" fill="#00BAF2"/>
<path id="Vector_2" d="M21.3835 4.02388H19.5996C19.3848 4.02388 19.2057 4.37435 19.2057 4.80919V12.1625C19.2025 12.6168 19.0169 12.9803 18.7891 12.9803H18.0436C17.8125 12.9803 17.6237 12.6103 17.6237 12.1495L17.6172 4.80919C17.6172 4.37435 17.4414 4.02388 17.2233 4.02388H15.4395C15.2214 4.02388 15.0456 4.37435 15.0456 4.80919V12.8634C15.0456 15.9203 16.1393 18.1075 17.6758 18.1075C17.6758 18.1075 18.8281 18.1075 18.8639 18.1205C19.0723 18.1659 19.2318 18.5163 19.2318 18.9447C19.2318 19.3666 19.0755 19.717 18.8672 19.7689C18.8574 19.7689 18.8477 19.7754 18.8379 19.7819L16.2305 19.8014C16.0124 19.8014 15.8366 20.1519 15.8366 20.5867V24.1368C15.8366 24.5716 16.0124 24.9221 16.2305 24.9221H19.1439C20.6803 24.9221 21.7741 22.7414 21.7741 19.6846V4.80919C21.7773 4.37435 21.6016 4.02388 21.3835 4.02388ZM11.2402 4.04336H8.76628C8.54818 4.04336 8.36914 4.37435 8.36914 4.77674V6.15914C8.36914 6.16563 8.36914 6.17861 8.36914 6.1851C8.36914 6.19808 8.36914 6.20457 8.36914 6.21755V8.11267C8.36914 8.54102 8.55795 8.89797 8.78907 8.89797H11.1458C11.3314 8.95639 11.4779 9.22897 11.5007 9.65083V10.1116C11.4811 10.514 11.3346 10.8061 11.1556 10.8385H9.99024C8.4375 10.8385 7.33399 12.8959 7.33399 15.7775V19.9117C7.33399 22.7804 8.28451 24.8183 9.82422 24.8183H13.0566C13.6361 24.8183 14.1081 23.9421 14.1081 22.8647V9.37824C14.1081 6.10722 13.2617 4.04336 11.2402 4.04336ZM11.5234 18.8798V19.4379C11.5234 19.4834 11.5202 19.5288 11.5169 19.5677C11.5137 19.6067 11.5072 19.6456 11.5007 19.6846C11.4453 19.9961 11.2891 20.2233 11.1035 20.2233H10.3613C10.1302 20.2233 9.94141 19.8728 9.94141 19.4379V18.7695C9.94141 18.763 9.94141 18.75 9.94141 18.7435V16.9587V16.4006V16.3941C9.94141 15.9657 10.1302 15.6153 10.3613 15.6153H11.1035C11.3346 15.6153 11.5234 15.9657 11.5234 16.4006V18.8798ZM4.28386 4.0174H0.38737C0.172526 4.0174 0 4.36786 0 4.78972V8.27492C0 8.28141 0 8.2879 0 8.29439C0 8.31386 0 8.32684 0 8.33982V24.1044C0 24.5327 0.159505 24.8832 0.361328 24.8897H2.17774C2.39583 24.8897 2.57162 24.5392 2.57162 24.1044L2.57813 18.7046H4.28386C5.70964 18.7046 6.70573 16.7316 6.70573 13.8694V8.85903C6.70573 6.00337 5.70964 4.0174 4.28386 4.0174ZM4.12761 10.5335V12.7272C4.12761 13.188 3.94206 13.5644 3.71094 13.5644H2.58138V9.17056H3.71094C3.94206 9.17056 4.12761 9.5405 4.12761 10.0013V10.5335Z" fill="#20336B"/>
</g>
</g>
<defs>
<clipPath id="clip0_501_375">
<rect width="40" height="25" fill="white"/>
</clipPath>
</defs>
</svg>
