<svg width="25" height="25" viewBox="0 0 25 25" fill="none" xmlns="http://www.w3.org/2000/svg">
<g id="phonepe-logo-icon 1" clip-path="url(#clip0_501_379)">
<path id="Vector" d="M15.3736 0.340512C12.9683 -0.2274 10.4487 -0.0693481 8.13327 0.794683C5.81785 1.65871 3.81064 3.18992 2.36543 5.19468C0.920219 7.19945 0.101924 9.58773 0.0140141 12.0575C-0.0738956 14.5274 0.572528 16.9678 1.87155 19.0702C3.17056 21.1727 5.06384 22.8427 7.31196 23.8692C9.56009 24.8956 12.0621 25.2324 14.5016 24.8369C16.9412 24.4415 19.2086 23.3315 21.0174 21.6474C22.8261 19.9633 24.0948 17.7807 24.6631 15.3755C25.0405 13.7783 25.0996 12.1225 24.8369 10.5024C24.5743 8.88243 23.9952 7.33002 23.1325 5.93386C22.2699 4.5377 21.1407 3.32514 19.8094 2.36543C18.4781 1.40571 16.9708 0.717643 15.3736 0.340512Z" fill="#5F259F"/>
<path id="Vector_2" d="M18.1723 9.2387C18.1655 9.00113 18.0674 8.77532 17.8984 8.60821C17.7294 8.44111 17.5025 8.34558 17.2649 8.34149H15.5885L11.7494 3.93271C11.5698 3.73093 11.3365 3.58439 11.0768 3.51018C10.817 3.43597 10.5416 3.43716 10.2825 3.51361L8.95191 3.93271C8.90463 3.94874 8.86193 3.97598 8.82747 4.01211C8.79301 4.04823 8.7678 4.09215 8.75401 4.14014C8.74021 4.18812 8.73824 4.23873 8.74826 4.28763C8.75827 4.33654 8.77998 4.3823 8.81153 4.42099L13.0046 8.40049H6.65292C6.60679 8.39845 6.56073 8.40606 6.51771 8.42285C6.47469 8.43964 6.43564 8.46523 6.40308 8.49798C6.37052 8.53073 6.34516 8.56992 6.32863 8.61304C6.31209 8.65616 6.30474 8.70226 6.30706 8.74839V9.44622C6.31124 9.68557 6.40818 9.91395 6.57745 10.0832C6.74672 10.2525 6.9751 10.3494 7.21445 10.3536H8.19304V13.7065C8.19304 16.2191 9.51954 17.686 11.7534 17.686C12.4224 17.7065 13.0883 17.5873 13.7086 17.336V19.574C13.7067 19.7212 13.7343 19.8673 13.7897 20.0037C13.8452 20.1401 13.9274 20.2639 14.0315 20.368C14.1356 20.4721 14.2595 20.5544 14.3958 20.6098C14.5322 20.6653 14.6783 20.6928 14.8255 20.6909H15.8021C15.9107 20.6833 16.013 20.6368 16.09 20.5597C16.167 20.4827 16.2136 20.3805 16.2212 20.2718V10.2865H17.8224C17.869 10.2891 17.9157 10.2819 17.9593 10.2652C18.003 10.2486 18.0427 10.2229 18.0757 10.1899C18.1087 10.1568 18.1344 10.1172 18.1511 10.0735C18.1677 10.0299 18.1749 9.98319 18.1723 9.93654V9.2387ZM13.6964 15.2425C13.256 15.4351 12.7792 15.5302 12.2987 15.5213C11.1817 15.5213 10.6243 14.9638 10.6243 13.7065V10.3556H13.6964V15.2385V15.2425Z" fill="white"/>
</g>
<defs>
<clipPath id="clip0_501_379">
<rect width="25" height="25" fill="white"/>
</clipPath>
</defs>
</svg>
