<svg width="14" height="14" viewBox="0 0 14 14" fill="none" xmlns="http://www.w3.org/2000/svg">
<g id="registration-icon 1" clip-path="url(#clip0_494_127)">
<g id="Group">
<path id="Vector" d="M6.12769 13.256C6.35525 13.256 6.54109 13.4224 6.54109 13.6274C6.54109 13.8325 6.35651 13.9989 6.12769 13.9989H0.960809C0.696587 13.9989 0.456384 13.902 0.281922 13.7448C0.107459 13.5887 0 13.3734 0 13.1341V0.865885C0 0.626628 0.107459 0.411296 0.281922 0.254069C0.456384 0.0968425 0.695322 0 0.960809 0H12.756C13.0202 0 13.2604 0.0979818 13.4349 0.254069C13.6094 0.411296 13.7168 0.626628 13.7168 0.865885V7.01253C13.7168 7.21761 13.5322 7.38395 13.3047 7.38395C13.0771 7.38395 12.8925 7.21761 12.8925 7.01253V0.865885C12.8925 0.832845 12.8774 0.802083 12.8521 0.780436C12.8268 0.75765 12.7927 0.743978 12.7573 0.743978H0.960809C0.924147 0.743978 0.890013 0.75765 0.864728 0.779297C0.840708 0.803223 0.825537 0.832845 0.825537 0.865885V13.1341C0.825537 13.1672 0.840708 13.1979 0.865992 13.2196C0.891277 13.2424 0.925411 13.256 0.962073 13.256H6.12769ZM4.29077 6.59896C4.21239 6.47705 4.26928 6.12842 4.43742 6.00537C4.91783 5.75244 5.58028 5.83105 6.04298 5.53939C6.06953 5.50293 6.09861 5.45052 6.12769 5.39242C6.16941 5.30583 6.2086 5.21126 6.23262 5.14632C6.13022 5.03695 6.04172 4.9139 5.95828 4.79313L5.68015 4.39437C5.57901 4.25765 5.52592 4.13232 5.52212 4.02979C5.52086 3.98193 5.52971 3.9375 5.54994 3.89876C5.57016 3.85775 5.60177 3.82471 5.64602 3.7985C5.66625 3.78597 5.689 3.77572 5.71302 3.76774C5.69406 3.55127 5.68774 3.27897 5.70038 3.04997C5.7067 2.99642 5.71808 2.94173 5.73451 2.88704C5.80531 2.65804 5.98357 2.47347 6.2048 2.34701C6.32617 2.27751 6.46018 2.22396 6.59924 2.18864C6.68774 2.16585 6.52339 1.91178 6.61568 1.90267C7.05815 1.86165 7.77244 2.2251 8.08091 2.52588C8.23515 2.67627 8.33249 2.87679 8.35398 3.14111L8.33628 3.79167C8.4134 3.81331 8.46271 3.85661 8.48293 3.92839C8.50569 4.00814 8.48167 4.11865 8.40582 4.27132C8.40455 4.2736 8.40329 4.27702 8.40076 4.2793L8.08344 4.74984C7.96713 4.92301 7.84829 5.09619 7.69406 5.23291C7.70796 5.25114 7.72314 5.26937 7.73704 5.2876C7.80025 5.37077 7.86346 5.45394 7.94437 5.528C7.9469 5.53027 7.94943 5.53369 7.9507 5.53597C8.31606 5.76839 9.2048 5.82536 9.54614 5.99626L9.56005 6.00309C9.73578 6.125 9.79014 6.47363 9.70923 6.59554H4.29077V6.59896ZM12.9317 9.00521C12.8647 8.9471 12.7876 8.91976 12.6991 8.9209C12.6094 8.92204 12.5335 8.95394 12.4716 9.01318L11.9595 9.49398L13.397 10.745L13.914 10.2596C13.976 10.2026 14.0013 10.1297 14 10.05C13.9987 9.97135 13.9671 9.89844 13.9039 9.84489L12.9317 9.00521ZM10.6877 13.2355C10.4981 13.2902 10.3085 13.346 10.1201 13.4019C9.93047 13.4588 9.74083 13.5158 9.55247 13.5728C9.10619 13.7049 8.85588 13.7778 8.80278 13.7915C8.75221 13.8052 8.78129 13.6172 8.89507 13.223L9.25032 11.9891L11.5032 9.91781L12.9393 11.1631L10.6877 13.2355ZM4.01264 10.8646C3.78508 10.8646 3.59924 10.696 3.59924 10.4875C3.59924 10.279 3.78382 10.1104 4.01264 10.1104H6.82048C7.04804 10.1104 7.23388 10.279 7.23388 10.4875C7.23388 10.696 7.0493 10.8646 6.82048 10.8646H4.01264ZM4.01264 8.50732C3.78508 8.50732 3.60051 8.34098 3.60051 8.13477C3.60051 7.92969 3.78508 7.76335 4.01264 7.76335H9.58154C9.8091 7.76335 9.99368 7.92969 9.99368 8.13477C9.99368 8.33984 9.8091 8.50732 9.58154 8.50732H4.01264Z" fill="black"/>
</g>
</g>
<defs>
<clipPath id="clip0_494_127">
<rect width="14" height="14" fill="white"/>
</clipPath>
</defs>
</svg>
