<svg width="14" height="14" viewBox="0 0 14 14" fill="none" xmlns="http://www.w3.org/2000/svg">
<g id="reset-password-icon 1" clip-path="url(#clip0_494_125)">
<path id="Vector" d="M11.6872 9.90414C11.7665 9.77294 11.8922 9.67863 12.0378 9.64119C12.1834 9.60375 12.3374 9.62612 12.4673 9.70356C12.5972 9.781 12.6926 9.90743 12.7335 10.0561C12.7744 10.2047 12.7575 10.3639 12.6864 10.5C11.7885 12.0997 10.3124 13.2689 8.5803 13.7523C6.84816 14.2358 5.00059 13.9942 3.4408 13.0804C3.41362 13.067 3.38735 13.0517 3.36219 13.0347C1.81892 12.1043 0.693971 10.5853 0.23118 8.80694C-0.23161 7.02853 0.00504684 5.134 0.889855 3.534C0.904676 3.50198 0.922214 3.47136 0.942264 3.44252C1.85207 1.85272 3.33526 0.697469 5.06872 0.228421C6.80218 -0.240627 8.64545 0.0145369 10.197 0.938326C11.2218 1.54349 12.0744 2.41511 12.6693 3.46597L12.7832 3.00971C12.8014 2.92657 12.8355 2.84803 12.8837 2.77875C12.9319 2.70947 12.9931 2.65088 13.0637 2.60644C13.1343 2.562 13.2129 2.53263 13.2948 2.52007C13.3766 2.50751 13.4601 2.51203 13.5402 2.53334C13.6204 2.55465 13.6955 2.59233 13.7612 2.64413C13.8269 2.69594 13.8819 2.76081 13.9227 2.8349C13.9636 2.90899 13.9896 2.99078 13.9992 3.07542C14.0087 3.16005 14.0017 3.2458 13.9784 3.32757L13.558 5.00719C13.5454 5.05736 13.5271 5.1058 13.5033 5.15146C13.4495 5.28654 13.3522 5.39848 13.2277 5.46851C13.1033 5.53855 12.9592 5.56244 12.8197 5.53618L11.1654 5.22184C11.0857 5.20644 11.0096 5.17501 10.9417 5.12936C10.8737 5.08372 10.8152 5.02474 10.7694 4.95579C10.7236 4.88685 10.6914 4.80929 10.6747 4.72755C10.658 4.64581 10.6571 4.56148 10.6721 4.47938C10.687 4.39728 10.7176 4.31902 10.7619 4.24907C10.8062 4.17911 10.8635 4.11883 10.9305 4.07167C10.9975 4.02451 11.0728 3.99139 11.1522 3.97421C11.2316 3.95702 11.3135 3.9561 11.3933 3.9715L11.6587 4.02194C11.1556 3.15492 10.4417 2.43782 9.58743 1.94129C8.73315 1.44476 7.76795 1.18593 6.78693 1.19031C5.80591 1.19469 4.84293 1.46213 3.99287 1.96627C3.1428 2.47041 2.43499 3.19386 1.93917 4.06534L1.92322 4.09583C1.17481 5.42868 0.970664 7.01276 1.35558 8.50041C1.74049 9.98805 2.68302 11.2577 3.97628 12.0307C5.27263 12.8006 6.81297 13.0091 8.25855 12.6101C9.70414 12.2111 10.9366 11.2373 11.6849 9.90297L11.6872 9.90414ZM9.18071 8.25502L9.83582 8.92945L10.2369 9.34231L9.58745 10.0167L9.18641 9.60388L8.5518 10.2572L7.89669 9.58276L8.53129 8.92945L8.1895 8.57757L7.45919 9.33059L6.80408 8.65616L7.53553 7.90314L7.30766 7.66855L7.0798 7.43397C6.71787 7.80499 6.22792 8.01329 5.71717 8.01329C5.20641 8.01329 4.71646 7.80499 4.35454 7.43397L4.32264 7.39878C3.97564 7.02385 3.78475 6.52413 3.79071 6.00629C3.79667 5.48846 3.99901 4.99353 4.35454 4.62717L5.01307 3.9457C5.37461 3.57241 5.86539 3.36226 6.37743 3.36149C6.88948 3.36072 7.38085 3.56939 7.74345 3.94159C8.10605 4.3138 8.31018 4.81905 8.31093 5.3462C8.31168 5.87335 8.10898 6.37921 7.74744 6.7525L9.18641 8.25502H9.18071ZM6.98523 4.71866C6.82172 4.55269 6.60133 4.45964 6.37171 4.45964C6.14209 4.45964 5.92169 4.55269 5.75818 4.71866L5.09624 5.39543C4.93877 5.55998 4.84872 5.78051 4.84469 6.01146C4.84066 6.24241 4.92296 6.46612 5.07459 6.63638L5.09738 6.65867C5.26103 6.82436 5.48137 6.91721 5.7109 6.91721C5.94043 6.91721 6.16077 6.82436 6.32443 6.65867L6.98523 5.98189C7.14617 5.81341 7.23636 5.58657 7.23636 5.35027C7.23636 5.11397 7.14617 4.88714 6.98523 4.71866Z" fill="black"/>
</g>
<defs>
<clipPath id="clip0_494_125">
<rect width="14" height="14" fill="white"/>
</clipPath>
</defs>
</svg>
