<svg width="14" height="14" viewBox="0 0 14 14" fill="none" xmlns="http://www.w3.org/2000/svg">
<g id="shield-lock-line-icon 1" clip-path="url(#clip0_494_122)">
<g id="Group">
<path id="Vector" fill-rule="evenodd" clip-rule="evenodd" d="M6.97593 0C9.58634 1.50562 11.9446 2.21792 13.9685 2.04953C14.322 8.55483 11.6817 12.3966 7.00298 14C2.48473 12.4993 -0.187781 8.8228 0.0104287 1.95086C2.38631 2.064 4.71725 1.59665 6.97593 0ZM5.19105 6.32358H5.3711V5.94408C5.3711 5.52378 5.55316 5.14074 5.84653 4.8624C6.14215 4.5819 6.55047 4.4077 7.00022 4.4077C7.44998 4.4077 7.85842 4.5819 8.15392 4.8624C8.44729 5.14074 8.62935 5.52378 8.62935 5.94408V6.32358H8.8094C8.95552 6.32358 9.07522 6.43239 9.07522 6.56546V9.12142C9.07522 9.25449 8.95552 9.3633 8.8094 9.3633H5.19105C5.0448 9.3633 4.92522 9.25449 4.92522 9.12142V6.56546C4.9251 6.43239 5.0448 6.32358 5.19105 6.32358ZM5.87445 6.32358H8.12587V5.94408C8.12587 5.64523 7.99803 5.37453 7.79206 5.17902C7.58834 4.98568 7.30799 4.86571 7.0001 4.86571C6.69233 4.86571 6.41186 4.98579 6.20826 5.17902C6.00216 5.37453 5.87445 5.64535 5.87445 5.94408V6.32358ZM6.78198 8.00728L6.49512 8.69087H7.50508L7.23938 7.99793C7.40804 7.91898 7.52336 7.75902 7.52336 7.57456C7.52336 7.31161 7.28909 7.09844 7.0001 7.09844C6.71111 7.09844 6.47697 7.31161 6.47697 7.57456C6.47697 7.76654 6.60193 7.93197 6.78198 8.00728ZM6.97869 0.803792C9.28934 2.13646 11.3769 2.76707 13.1684 2.61794C13.4812 8.37619 11.1442 11.777 7.00285 13.1961C3.00335 11.8678 0.637487 8.61362 0.813033 2.53055C2.91621 2.63081 4.97944 2.21712 6.97869 0.803792Z" fill="black"/>
</g>
</g>
<defs>
<clipPath id="clip0_494_122">
<rect width="14" height="14" fill="white"/>
</clipPath>
</defs>
</svg>
