<svg width="40" height="25" viewBox="0 0 40 25" fill="none" xmlns="http://www.w3.org/2000/svg">
<g id="visa-icon 1" clip-path="url(#clip0_501_382)">
<g id="Layer_x0020_1">
<g id="_364834240">
<path id="Vector" d="M3.76843 0H36.2405C37.2762 0 38.2173 0.4432 38.8992 1.15699C39.5811 1.87091 40.0045 2.85618 40.0045 3.94031V21.0597C40.0045 22.1437 39.581 23.129 38.8992 23.8429C38.2172 24.5567 37.2761 25 36.2406 25H3.76855C2.73307 25 1.79179 24.5568 1.10984 23.8429C0.427998 23.1291 0.00463867 22.1439 0.00463867 21.0597V3.94031C0.00463867 2.85606 0.427998 1.87079 1.10984 1.15699C1.79167 0.4432 2.73295 0 3.76867 0H3.76843ZM36.2405 1.35812H3.76843C3.09079 1.35812 2.47423 1.64894 2.02687 2.11726C1.57951 2.58559 1.30172 3.23104 1.30172 3.94044V21.0598C1.30172 21.7691 1.57951 22.4145 2.02687 22.8829C2.47435 23.3513 3.09091 23.6421 3.76843 23.6421H36.2405C36.9179 23.6421 37.5344 23.3513 37.9819 22.8829C38.4293 22.4144 38.7072 21.769 38.7072 21.0599V3.94056C38.7072 3.23142 38.4294 2.58584 37.982 2.11739C37.5347 1.64906 36.918 1.35824 36.2405 1.35824V1.35812Z" fill="#808080"/>
<path id="Vector_2" fill-rule="evenodd" clip-rule="evenodd" d="M16.3956 16.3034L17.6308 8.71552H19.6064L18.3704 16.3034H16.3956ZM25.5358 8.90257C25.1444 8.74856 24.5311 8.58386 23.7651 8.58386C21.8131 8.58361 20.4378 9.61297 20.4262 11.0879C20.4152 12.1778 21.408 12.7864 22.1573 13.1494C22.9263 13.521 23.1849 13.7584 23.1812 14.0906C23.1763 14.599 22.567 14.8315 21.9992 14.8315C21.2085 14.8315 20.7884 14.7166 20.1396 14.4333L19.8849 14.3124L19.6076 16.0111C20.0691 16.223 20.9223 16.4066 21.8083 16.4161C23.885 16.416 25.2332 15.3988 25.2485 13.8238C25.256 12.9605 24.7297 12.3037 23.5899 11.7621C22.8993 11.4109 22.4763 11.177 22.4809 10.8215C22.4809 10.506 22.8388 10.1689 23.6122 10.1689C24.2584 10.1582 24.7262 10.3058 25.0909 10.4596L25.268 10.547L25.5357 8.9027L25.5358 8.90257ZM30.602 8.72268H29.0753C28.6024 8.72268 28.2484 8.8581 28.0407 9.35218L25.1067 16.3057H27.1813C27.1813 16.3057 27.5205 15.3709 27.5973 15.1657C27.8241 15.1657 29.8394 15.1689 30.1275 15.1689C30.1866 15.4345 30.3678 16.3058 30.3678 16.3058L32.2012 16.3057L30.6021 8.72268H30.602ZM28.1657 13.6136C28.3292 13.1764 28.9528 11.4927 28.9528 11.4927C28.9413 11.5128 29.1149 11.0534 29.2148 10.7685L29.3485 11.4225C29.3485 11.4225 29.7266 13.234 29.8057 13.6137L28.1656 13.6136H28.1657ZM14.7386 8.72104L12.8045 13.8955L12.5983 12.844C12.2383 11.6317 11.1163 10.3186 9.86206 9.66109L11.6307 16.2969L13.721 16.2943L16.8313 8.72104H14.7386Z" fill="#191E70"/>
<path id="Vector_3" fill-rule="evenodd" clip-rule="evenodd" d="M11.01 8.71655H7.82427L7.79907 8.87446C10.2775 9.50233 11.9175 11.0204 12.5982 12.844L11.9055 9.35723C11.7859 8.87672 11.439 8.73339 11.01 8.71655Z" fill="#F7B600"/>
</g>
</g>
</g>
<defs>
<clipPath id="clip0_501_382">
<rect width="40" height="25" fill="white"/>
</clipPath>
</defs>
</svg>
